<?xml version="1.0" standalone="no"?><!DOCTYPE svg PUBLIC "-//W3C//DTD SVG 20010904//EN" "http://www.w3.org/TR/2001/REC-SVG-20010904/DTD/svg10.dtd"><svg version="1.0" xmlns="http://www.w3.org/2000/svg" width="1023.929009pt" height="1019.199739pt" viewBox="0 0 1023.929009 1019.199739" preserveAspectRatio="xMidYMid meet"><metadata> Created by potrace 1.16, written by Peter Selinger 2001-2019 </metadata><g transform="translate(-0.040412,1023.445087) scale(0.100000,-0.100000)" fill="#000000" stroke="none"><path d="M2625 10229 c-332 -6 -398 -10 -600 -35 -553 -68 -1000 -277 -1355 -634 -269 -271 -458 -603 -555 -975 -70 -266 -92 -469 -105 -954 -11 -413 -13 -2030 -3 -3084 6 -700 7 -728 25 -724 12 4 18 0 19 -11 0 -11 2 -12 6 -4 2 6 12 12 22 12 9 0 27 9 39 20 12 12 22 18 22 15 0 -4 7 1 16 9 8 9 12 21 8 27 -4 8 -3 9 4 5 7 -4 12 -2 12 4 0 5 20 20 45 32 27 13 45 29 45 39 0 23 53 42 70 26 10 -10 11 -8 6 8 -4 11 -4 17 -1 13 4 -3 15 2 26 13 11 11 25 16 35 12 12 -4 15 -3 10 5 -4 7 -4 12 1 13 4 0 19 2 32 3 14 2 27 8 29 15 2 6 8 9 13 5 5 -3 9 -1 9 4 0 5 9 12 20 15 11 3 18 0 17 -6 -1 -6 6 -13 16 -15 13 -3 17 1 15 15 -2 13 3 18 20 18 13 0 27 7 32 15 5 8 17 15 27 15 10 0 17 5 16 12 -2 8 4 10 14 6 11 -4 14 -3 9 5 -4 7 -3 12 3 12 5 0 24 12 41 26 17 15 33 24 37 21 3 -4 14 -2 24 4 15 8 19 6 20 -8 0 -11 3 -13 6 -5 2 6 18 12 33 12 16 0 32 5 35 10 4 6 11 8 16 5 5 -4 9 -1 9 5 0 6 4 8 10 5 5 -3 10 -2 10 3 0 5 20 15 45 22 34 9 47 19 51 36 4 15 14 24 28 25 19 1 53 4 100 8 14 1 17 6 13 24 -5 20 -5 20 7 4 7 -9 16 -17 20 -17 11 0 6 28 -6 32 -8 3 -6 7 5 11 9 3 16 3 16 -1 -4 -26 2 -32 21 -22 11 6 20 7 20 3 0 -4 4 -3 8 4 4 7 26 15 49 19 l42 6 4 -58 c2 -33 4 308 5 756 3 1151 18 1626 63 1934 77 531 299 965 657 1281 325 288 723 452 1237 509 256 29 542 37 1515 43 947 5 1618 -4 1937 -28 596 -43 1037 -208 1390 -519 367 -322 586 -757 667 -1320 38 -268 56 -857 56 -1890 0 -981 -17 -1586 -51 -1855 -101 -805 -526 -1401 -1209 -1693 -69 -29 -113 -51 -98 -48 19 4 30 1 38 -11 10 -16 11 -15 7 5 -3 14 0 22 8 22 7 0 17 -15 20 -32 4 -18 16 -47 26 -64 10 -17 19 -39 19 -48 0 -18 15 -47 43 -85 9 -13 17 -19 17 -13 0 6 -4 13 -10 17 -5 3 -7 12 -4 20 4 8 10 13 14 10 13 -8 18 -53 6 -66 -8 -9 -8 -10 0 -6 13 8 28 -38 19 -53 -4 -6 -2 -10 2 -10 5 0 10 -8 11 -17 13 -128 14 -134 29 -116 14 17 14 17 10 -4 -3 -12 1 -30 9 -41 7 -11 10 -22 7 -26 -3 -3 -1 -6 6 -6 8 0 11 -7 7 -15 -3 -8 -1 -15 4 -15 6 0 10 -27 10 -60 0 -64 33 -151 43 -113 3 11 5 5 6 -13 1 -18 12 -42 26 -58 21 -23 25 -36 23 -74 -2 -34 1 -46 10 -44 8 1 12 -11 12 -38 0 -27 5 -43 15 -46 8 -3 24 -39 37 -80 12 -41 25 -69 29 -63 3 6 10 -6 14 -28 7 -37 8 -37 17 -13 l9 25 15 -34 c8 -19 12 -41 9 -49 -2 -7 4 -31 14 -53 11 -21 15 -37 10 -33 -5 3 -9 1 -9 -5 0 -11 48 -142 54 -148 2 -2 66 6 142 17 503 76 898 263 1232 585 342 329 548 716 637 1199 68 372 75 678 75 3276 0 1975 -8 2720 -30 2950 -37 384 -108 657 -239 925 -102 209 -229 386 -399 559 -357 362 -794 570 -1352 640 -302 39 -393 40 -2865 40 -1325 1 -2554 -2 -2730 -5z m-2475 -6343 c0 -2 -7 -7 -16 -10 -8 -3 -12 -2 -9 4 6 10 25 14 25 6z m-45 -26 c-3 -5 -12 -10 -18 -10 -7 0 -6 4 3 10 19 12 23 12 15 0z m7836 -3233 c-10 -9 -11 -8 -5 6 3 10 9 15 12 12 3 -3 0 -11 -7 -18z m49 -68 c0 -6 -4 -7 -10 -4 -5 3 -10 11 -10 16 0 6 5 7 10 4 6 -3 10 -11 10 -16z m7 -61 c-3 -8 -6 -5 -6 6 -1 11 2 17 5 13 3 -3 4 -12 1 -19z"/><path d="M3755 8179 c-368 -15 -573 -44 -768 -109 -409 -137 -680 -408 -817 -817 -103 -308 -121 -606 -118 -1923 1 -476 3 -837 5 -802 3 43 8 62 17 62 8 0 13 -8 12 -17 -2 -30 29 -21 32 9 l3 27 47 -15 c26 -7 48 -14 48 -14 1 0 1 8 0 17 -1 14 8 18 49 19 41 2 45 1 20 -6 l-30 -8 31 -1 c20 -1 34 5 38 14 4 10 19 15 48 15 24 0 39 -4 33 -8 -23 -17 -14 -32 19 -32 23 0 38 7 47 20 12 19 24 21 106 21 70 0 93 3 97 15 8 20 38 18 34 -3 -2 -13 3 -17 17 -15 11 1 72 1 135 0 63 -1 151 -2 195 -1 45 0 69 -2 55 -6 -22 -6 -23 -8 -7 -14 31 -12 77 -8 77 6 0 7 11 14 25 15 19 1 28 -5 40 -31 11 -24 14 -26 10 -7 -52 225 -56 258 -62 465 -6 232 6 351 53 540 171 677 711 1220 1387 1395 450 116 939 65 1347 -140 659 -332 1070 -995 1070 -1730 0 -676 -354 -1303 -937 -1661 -39 -24 -70 -45 -68 -47 2 -2 13 2 26 8 19 11 21 10 16 -3 -3 -9 1 -21 9 -28 8 -7 14 -8 13 -3 -4 21 2 24 17 10 8 -9 12 -22 8 -28 -4 -7 -4 -10 1 -6 4 4 15 -1 24 -10 9 -10 12 -12 7 -5 -12 18 8 17 24 -2 6 -8 9 -18 6 -23 -3 -5 20 -26 50 -47 31 -21 82 -64 115 -95 32 -31 59 -55 59 -53 0 2 9 -5 19 -14 11 -10 26 -23 33 -29 28 -25 65 -73 59 -79 -3 -4 6 -2 21 4 22 8 29 6 49 -17 17 -19 18 -22 4 -11 -11 9 -28 16 -38 16 -15 0 -15 -3 4 -23 12 -13 26 -21 31 -18 5 3 12 -3 15 -15 3 -12 10 -21 16 -21 6 0 8 -3 5 -6 -7 -7 49 -69 63 -69 5 0 14 -6 18 -14 5 -7 13 -11 19 -7 5 3 16 -2 23 -12 12 -15 12 -16 -1 -5 -9 6 -21 8 -28 4 -9 -5 -7 -13 9 -27 15 -12 20 -14 15 -4 -4 8 0 6 8 -4 9 -11 19 -16 23 -13 4 4 19 -5 34 -19 24 -23 26 -28 13 -41 -13 -13 -11 -19 13 -47 16 -18 31 -31 35 -29 4 2 9 -6 13 -17 3 -11 21 -34 38 -52 18 -17 26 -28 19 -24 -7 4 -4 -7 8 -26 11 -18 25 -33 32 -33 7 0 12 -8 10 -18 -2 -10 4 -17 14 -17 12 0 14 -3 6 -13 -7 -8 -6 -19 3 -37 8 -14 14 -19 15 -12 0 29 39 5 44 -29 1 -3 9 -13 19 -23 9 -10 17 -23 17 -29 0 -7 13 -27 29 -46 17 -19 28 -38 25 -43 -3 -4 -1 -8 4 -8 6 0 13 -7 16 -16 5 -12 2 -15 -9 -10 -9 3 -13 2 -10 -4 3 -6 1 -10 -6 -10 -7 0 -10 -3 -6 -6 10 -11 168 46 282 102 205 99 386 266 508 470 83 139 156 361 187 573 40 274 45 481 45 1816 0 1532 -7 1714 -81 2015 -116 471 -405 790 -849 939 -200 67 -401 94 -820 111 -278 11 -2398 11 -2680 -1z m3456 -609 c180 -34 329 -190 360 -378 44 -269 -172 -522 -446 -522 -254 1 -455 202 -455 455 0 287 257 498 541 445z m-4021 -2920 c0 -5 -6 -10 -14 -10 -8 0 -18 5 -21 10 -3 6 3 10 14 10 12 0 21 -4 21 -10z m2975 -1252 c19 -22 19 -22 -10 2 -48 40 -51 43 -30 32 11 -6 29 -21 40 -34z m78 -60 c2 -7 1 -22 -4 -33 -4 -11 -8 -14 -8 -7 -1 6 -9 13 -18 13 -16 1 -16 2 0 6 11 3 16 11 13 19 -3 8 -1 14 3 14 5 0 11 -6 14 -12z m72 -68 c18 -19 17 -20 -1 -20 -13 0 -20 7 -20 20 0 11 1 20 2 20 0 0 9 -9 19 -20z m116 -123 c-12 -12 -34 1 -25 14 3 5 0 18 -7 27 -8 9 -1 6 14 -7 17 -15 24 -28 18 -34z m40 -24 c13 -16 12 -17 -3 -4 -10 7 -18 15 -18 17 0 8 8 3 21 -13z m62 -61 c20 -21 23 -29 12 -29 -8 0 -13 3 -10 5 3 3 -5 16 -17 29 -12 13 -19 23 -17 23 3 0 17 -13 32 -28z m164 -175 c10 -11 13 -17 6 -14 -6 4 -13 2 -15 -4 -2 -7 -11 -1 -20 13 -13 20 -14 25 -2 25 8 0 22 -9 31 -20z m201 -242 c-3 -4 -16 9 -28 27 l-23 33 28 -27 c16 -15 26 -30 23 -33z m147 -234 c3 -5 1 -12 -4 -15 -5 -3 -11 1 -15 9 -6 16 9 21 19 6z"/><path d="M4978 6359 c-372 -46 -693 -243 -898 -552 -261 -393 -272 -913 -29 -1319 28 -46 57 -90 66 -98 9 -8 6 0 -6 18 l-22 32 45 0 c53 0 62 -17 14 -23 -18 -2 4 -5 50 -5 57 -2 95 -8 125 -21 23 -11 58 -22 77 -25 118 -19 148 -25 170 -34 14 -6 19 -11 13 -11 -7 -1 -13 -7 -13 -15 0 -8 -5 -16 -12 -18 -7 -3 -5 -7 6 -11 10 -4 15 -3 11 3 -4 6 6 10 21 10 23 0 25 -2 14 -15 -11 -14 -10 -14 13 -6 19 8 28 6 37 -4 7 -8 16 -12 21 -9 5 3 9 0 9 -6 0 -6 5 -8 11 -5 15 10 79 -4 76 -17 -1 -6 4 -12 11 -13 7 -2 8 -1 2 2 -5 2 -8 9 -5 13 6 10 65 -8 65 -20 0 -7 28 -18 67 -26 7 -1 32 -13 55 -26 65 -36 81 -45 108 -57 23 -10 23 -11 2 -5 -22 5 -23 4 -13 -15 7 -12 16 -21 22 -21 6 0 7 -4 4 -10 -3 -5 -1 -10 4 -10 6 0 11 7 11 15 0 27 37 16 63 -19 16 -20 38 -36 56 -39 17 -4 31 -11 31 -16 0 -6 -8 -8 -17 -4 -22 8 -17 2 22 -22 29 -18 29 -18 15 0 -14 17 -14 17 6 7 12 -6 23 -9 26 -7 3 3 10 -6 16 -19 9 -21 8 -26 -8 -31 -11 -4 -24 -4 -29 0 -5 3 -12 1 -16 -5 -9 -14 18 -12 115 9 228 51 419 153 587 313 280 268 417 632 382 1012 -58 626 -562 1103 -1194 1130 -60 3 -144 0 -187 -5z m388 -2446 c-7 -7 -26 7 -26 19 0 6 6 6 15 -2 9 -7 13 -15 11 -17z"/><path d="M2630 4610 c0 -6 25 -10 58 -9 41 0 51 3 37 9 -28 12 -95 12 -95 0z"/><path d="M3206 4605 c-3 -9 0 -15 9 -15 16 0 20 16 6 24 -5 3 -11 -1 -15 -9z"/><path d="M2170 4570 c-9 -6 -10 -10 -3 -10 6 0 15 5 18 10 8 12 4 12 -15 0z"/><path d="M1085 4331 c3 -5 -4 -12 -15 -16 -11 -3 -20 -11 -20 -16 0 -5 12 -2 28 8 15 9 28 18 30 19 2 1 -4 4 -13 8 -9 3 -13 2 -10 -3z"/><path d="M4518 4293 c7 -3 16 -2 19 1 4 3 -2 6 -13 5 -11 0 -14 -3 -6 -6z"/><path d="M4960 4130 c18 -13 27 -15 32 -7 7 12 -14 25 -42 26 -10 0 -6 -6 10 -19z"/><path d="M575 4100 c3 -5 8 -10 11 -10 2 0 4 5 4 10 0 6 -5 10 -11 10 -5 0 -7 -4 -4 -10z"/><path d="M327 3980 c17 -19 40 -21 47 -4 6 16 -10 19 -19 4 -5 -8 -12 -7 -23 2 -14 10 -15 10 -5 -2z"/><path d="M303 3973 c4 -3 -1 -12 -11 -20 -15 -13 -15 -13 6 -3 19 9 23 30 5 30 -4 0 -3 -3 0 -7z"/><path d="M235 3910 c-4 -6 -11 -7 -17 -4 -7 4 -8 2 -4 -5 6 -9 11 -9 22 0 14 11 18 19 10 19 -3 0 -8 -5 -11 -10z"/><path d="M5198 3883 c7 -3 16 -2 19 1 4 3 -2 6 -13 5 -11 0 -14 -3 -6 -6z"/><path d="M6784 2749 c-4 -7 1 -18 11 -26 36 -26 49 -9 16 21 -14 13 -21 14 -27 5z"/></g></svg> 