<?xml version="1.0" standalone="no"?><!DOCTYPE svg PUBLIC "-//W3C//DTD SVG 20010904//EN" "http://www.w3.org/TR/2001/REC-SVG-20010904/DTD/svg10.dtd"><svg version="1.0" xmlns="http://www.w3.org/2000/svg" width="1024.000000pt" height="1024.000000pt" viewBox="0 0 1024.000000 1024.000000" preserveAspectRatio="xMidYMid meet"><metadata> Created by potrace 1.16, written by Peter Selinger 2001-2019 </metadata><g transform="translate(0.000000,1024.000000) scale(0.100000,-0.100000)" fill="#000000" stroke="none"><path d="M2 8818 l1 -1423 7 275 c17 632 81 962 259 1325 271 552 762 957 1359 1121 211 57 405 86 712 104 l165 10 2625 0 2625 0 165 -10 c461 -29 768 -99 1064 -244 234 -114 416 -246 601 -437 179 -184 317 -386 416 -609 112 -251 169 -487 211 -870 l11 -105 4 -2675 5 -2675 -12 -220 c-19 -373 -56 -609 -131 -843 -205 -631 -676 -1126 -1290 -1355 -94 -36 -276 -87 -306 -87 l-15 0 4 25 c3 14 1 28 -3 31 -5 3 -14 14 -19 24 l-10 20 17 -7 18 -6 -12 14 -13 13 -1 60 -1 61 -8 -30 -8 -30 -1 27 c0 15 -5 29 -9 32 -13 8 -13 78 -1 92 13 16 4 34 -17 34 l-14 0 -1 33 c-1 36 -26 122 -28 95 -1 -10 -5 -18 -9 -18 -4 0 -7 37 -5 82 l4 83 -13 43 -12 42 -12 -4 -12 -5 -7 32 c-4 18 -8 43 -10 57 -12 85 -50 215 -65 225 -5 3 -7 12 -3 20 3 8 0 15 -6 15 l-10 0 6 17 6 16 -11 -7 -12 -7 -6 18 c-3 10 -10 26 -15 37 l-10 18 10 -7 11 -6 0 22 0 21 -17 -13 -18 -14 11 15 c6 8 14 23 17 33 l7 18 -12 -7 -11 -7 7 18 6 18 -13 -11 -14 -12 -22 39 -21 40 10 6 c5 3 10 1 10 -6 0 -7 2 -10 5 -7 8 8 -16 68 -25 63 -11 -7 -29 26 -23 42 3 7 -1 30 -8 50 -7 21 -12 44 -10 52 l2 13 -10 -7 -11 -6 0 22 0 23 -12 -12 -12 -12 11 -35 11 -35 -9 -5 c-8 -6 -39 57 -39 80 0 7 -11 29 -25 49 l-24 36 6 17 6 16 -14 -8 -14 -8 10 10 c6 5 44 35 85 66 171 127 334 300 456 482 212 319 328 698 364 1190 41 573 41 2709 0 3290 -28 387 -99 679 -234 961 -131 273 -326 512 -566 694 -277 210 -633 349 -1032 405 -294 40 -791 55 -1898 55 -1099 0 -1619 -15 -1900 -56 -408 -59 -752 -195 -1035 -408 -115 -86 -289 -264 -384 -391 l-82 -110 -77 -155 -78 -155 -41 -125 c-133 -402 -161 -763 -165 -2115 -1 -346 -3 -606 -5 -578 -2 29 -5 53 -7 53 -10 0 -113 -34 -121 -39 -36 -27 -179 -64 -237 -63 -14 1 -32 -6 -39 -14 l-12 -14 17 6 16 6 0 -11 c0 -6 -12 -11 -26 -11 l-25 0 5 9 c13 21 -20 16 -44 -6 -36 -34 -100 -71 -135 -77 -16 -3 -31 -10 -33 -16 -2 -5 -8 -10 -13 -10 -4 0 -6 7 -3 15 9 24 -9 18 -44 -14 -17 -17 -32 -28 -32 -25 0 2 -15 -3 -32 -13 -18 -9 -37 -16 -42 -15 -5 2 -16 -4 -25 -11 -9 -8 -32 -18 -51 -22 -19 -4 -46 -16 -59 -26 -13 -10 -27 -16 -32 -13 -5 3 -9 0 -9 -7 0 -7 -3 -10 -6 -6 -3 3 -16 -3 -27 -14 -12 -11 -37 -29 -55 -39 l-33 -20 7 12 8 13 -17 -14 c-9 -7 -15 -17 -12 -21 3 -4 -3 -14 -12 -21 l-17 -14 8 13 7 12 -15 0 c-9 0 -16 -4 -16 -8 0 -8 -14 -16 -63 -40 -4 -2 -7 1 -7 8 l0 11 12 -7 11 -7 -7 11 c-4 6 -13 9 -21 6 -8 -4 -12 -11 -8 -17 l6 -10 -16 6 -16 6 -6 -20 c-4 -10 -13 -19 -21 -19 l-15 0 7 -12 7 -11 -11 7 c-6 4 -9 13 -5 21 l5 15 -18 0 -19 1 20 16 20 16 -17 -6 -18 -6 -3 472 c-1 260 -3 -715 -5 -2165 l-2 -2638 5120 0 5120 0 0 5120 0 5120 -5120 0 -5120 0 2 -1422z m6648 -647 c550 -39 849 -150 1110 -411 147 -147 240 -299 306 -503 63 -196 86 -344 106 -667 l13 -215 0 -1260 0 -1260 -13 -203 c-15 -236 -25 -329 -53 -467 -42 -209 -134 -428 -238 -565 -27 -36 -88 -102 -135 -148 l-85 -84 -12 8 -12 7 7 -11 6 -10 -32 -23 -33 -23 17 20 18 20 -19 40 c-11 21 -30 51 -43 65 l-23 26 -15 -4 -15 -5 15 11 14 10 -14 25 c-7 14 -18 26 -24 26 l-10 0 12 -12 c15 -15 16 -32 2 -23 -12 7 -63 105 -55 105 3 0 -4 9 -15 20 -11 11 -20 25 -20 30 0 6 -4 16 -10 23 -5 7 -25 32 -43 57 -19 25 -41 44 -49 44 l-15 -1 5 19 5 19 -34 29 c-18 17 -29 30 -25 30 4 0 1 6 -6 13 -7 8 -24 29 -38 47 -14 18 -37 47 -52 64 -15 17 -38 44 -50 59 -13 15 -49 54 -80 86 -31 33 -54 61 -52 64 2 2 -3 10 -13 18 l-17 14 8 -15 c4 -8 0 -6 -9 5 -9 11 -21 19 -26 17 -6 -1 -8 2 -4 8 l6 10 -106 105 c-59 57 -119 114 -133 125 -15 12 -20 19 -12 15 8 -3 0 7 -19 22 -19 15 -48 41 -65 58 -17 16 -34 28 -38 27 -4 -1 -17 12 -30 28 -25 34 -43 37 -72 13 -12 -10 15 20 60 67 367 387 554 846 554 1360 0 966 -701 1773 -1661 1914 l-107 16 -162 0 -162 0 -107 -16 c-296 -43 -559 -144 -806 -309 -421 -281 -721 -727 -820 -1220 -27 -135 -50 -373 -42 -450 2 -27 2 -42 0 -32 l-4 17 -57 1 c-31 0 -50 3 -42 6 8 3 18 11 22 17 l7 11 -27 7 -26 7 -9 -14 -8 -15 -49 0 c-27 0 -60 -4 -74 -10 l-26 -10 0 11 c0 6 -5 7 -10 4 -6 -4 -8 -10 -6 -13 4 -6 -38 -8 -54 -2 -3 1 -19 1 -37 0 l-31 -1 -4 21 -3 21 -22 -20 c-12 -12 -31 -21 -43 -21 l-20 0 0 14 c0 8 6 17 13 20 6 3 -17 4 -53 3 l-65 -3 -37 -17 c-21 -10 -38 -15 -38 -12 0 3 10 10 23 15 l22 9 -32 0 -33 1 0 -11 c0 -6 -6 -17 -14 -24 l-13 -13 -44 4 -44 4 25 -9 25 -9 -65 -2 c-36 -1 -71 -2 -79 -1 l-13 2 6 -10 7 -10 -52 6 -52 6 6 -10 6 -10 -47 1 -47 0 -6 -54 c-4 -30 -5 310 -4 755 l4 810 10 155 c38 548 149 850 410 1111 268 267 578 379 1141 409 314 17 310 17 1620 15 l1255 -3 155 -11z m-1305 -1827 c296 -50 585 -230 773 -479 107 -143 195 -348 227 -532 l15 -86 0 -127 0 -127 -15 -89 c-30 -169 -97 -333 -198 -484 -51 -77 -214 -247 -277 -290 l-35 -24 13 16 13 16 -22 16 c-12 8 -26 13 -31 10 -4 -3 -8 -1 -8 5 0 6 -16 18 -35 27 -19 9 -35 20 -35 25 0 5 -9 9 -20 9 -11 0 -20 4 -20 9 0 5 -12 14 -27 19 l-28 10 29 1 c35 1 27 13 -11 17 -45 4 -56 8 -93 31 -19 11 -45 24 -58 28 l-22 6 6 11 7 11 -11 -7 c-6 -3 -18 1 -26 10 -9 8 -16 12 -16 9 0 -4 -18 12 -41 36 l-40 42 -10 -10 c-14 -14 -59 -4 -59 12 0 7 6 16 13 18 l12 5 -18 1 c-10 1 -25 8 -33 16 -9 8 -24 15 -35 15 -11 0 -33 7 -50 15 -16 9 -34 13 -39 10 -6 -3 -10 -1 -10 5 l0 11 -20 -6 -20 -6 0 11 c0 6 -6 10 -12 9 -7 -1 -19 -1 -26 0 l-13 1 7 11 7 11 -21 -6 -20 -7 -7 11 c-4 6 -14 9 -22 6 l-14 -6 7 11 7 11 -34 -6 -34 -6 20 9 20 10 -25 1 -25 2 28 10 28 10 -38 20 c-21 11 -69 24 -108 30 -38 5 -94 21 -123 34 -29 13 -62 24 -73 24 -11 0 -35 7 -54 14 l-35 15 0 15 c0 9 -3 16 -7 17 -5 0 -33 2 -63 3 -30 1 -72 9 -92 16 l-38 14 0 16 0 17 -35 -2 c-18 0 -32 1 -30 4 7 6 -45 31 -66 31 l-19 0 0 -15 0 -15 -25 0 -25 0 -1 13 -1 12 -5 -12 c-2 -7 -11 -13 -19 -13 l-15 0 7 11 7 12 -27 -7 -26 -6 0 10 c0 5 -17 10 -37 11 -21 0 -32 3 -25 6 21 8 13 23 -12 23 -14 0 -36 4 -50 10 l-26 10 -1 -28 -2 -27 -8 45 c-4 25 -8 104 -8 176 l-1 132 15 83 c34 180 91 321 192 473 l67 101 86 85 85 86 103 68 c274 183 586 247 917 190z m-2158 -1381 l-5 -18 0 30 c0 17 2 24 5 18 2 -7 2 -21 0 -30z m5185 -4432 c2 -17 1 -28 -3 -26 -10 7 -18 55 -9 55 4 0 10 -13 12 -29z"/><path d="M7010 7566 c-155 -43 -275 -158 -321 -307 l-19 -61 0 -73 0 -73 19 -61 c26 -83 60 -137 123 -198 62 -58 108 -84 193 -108 l59 -18 88 5 87 5 76 36 76 36 52 53 53 53 33 66 c18 36 37 96 44 132 l11 65 -11 72 -12 73 -31 64 -32 65 -52 51 c-115 115 -289 164 -436 123z"/><path d="M4019 4960 l23 -10 -11 -14 -11 -13 31 -7 c17 -3 51 -6 76 -6 l44 0 -7 11 -7 11 -51 -5 c-28 -3 -45 -3 -39 0 l13 5 -14 13 c-7 8 -27 17 -42 20 l-29 5 24 -10z"/><path d="M8342 855 c0 -11 4 -31 8 -45 l8 -25 0 25 c0 14 -3 34 -8 45 l-9 20 1 -20z"/><path d="M8430 350 c0 -5 4 -10 9 -10 6 0 13 5 16 10 l6 10 -15 0 c-9 0 -16 -4 -16 -10z"/></g></svg> 