<?xml version="1.0" standalone="no"?><!DOCTYPE svg PUBLIC "-//W3C//DTD SVG 20010904//EN" "http://www.w3.org/TR/2001/REC-SVG-20010904/DTD/svg10.dtd"><svg version="1.0" xmlns="http://www.w3.org/2000/svg" width="1023.857872pt" height="1023.614999pt" viewBox="0 0 1023.857872 1023.614999" preserveAspectRatio="xMidYMid meet"><metadata> Created by potrace 1.16, written by Peter Selinger 2001-2019 </metadata><g transform="translate(-0.003502,1023.855529) scale(0.100000,-0.100000)" fill="#000000" stroke="none"><path d="M2285 10229 c-423 -26 -746 -103 -1042 -249 -613 -300 -1037 -859 -1172 -1545 -71 -365 -71 -350 -71 -3308 0 -2647 2 -2834 36 -3102 70 -557 272 -988 630 -1349 377 -379 844 -587 1449 -645 61 -6 135 -14 165 -17 102 -12 5358 -16 5586 -5 325 17 545 49 767 111 715 201 1286 772 1487 1487 62 220 94 437 110 754 16 299 8 5559 -8 5709 -44 403 -110 654 -242 925 -256 525 -705 916 -1263 1100 -225 74 -464 115 -787 135 -198 12 -5449 11 -5645 -1z m3995 -1369 c701 -20 959 -58 1302 -191 244 -95 432 -216 621 -399 256 -247 396 -471 508 -810 72 -221 109 -424 129 -718 39 -565 39 -2686 0 -3244 -38 -546 -171 -956 -417 -1286 -75 -100 -246 -277 -348 -359 -290 -233 -687 -385 -1145 -437 -305 -34 -599 -41 -1835 -41 -1463 0 -1707 10 -2055 81 -317 65 -646 212 -860 382 -348 279 -575 629 -691 1066 -54 206 -82 407 -100 726 -16 286 -23 2117 -10 2595 16 584 31 760 87 1015 172 775 695 1319 1459 1515 252 65 494 90 985 104 408 12 1973 12 2370 1z"/><path d="M3875 8194 c-477 -17 -711 -49 -935 -129 -105 -38 -253 -116 -330 -174 -83 -63 -234 -218 -287 -296 -116 -172 -199 -405 -237 -665 -36 -249 -41 -453 -41 -1795 0 -1569 7 -1738 85 -2040 65 -252 157 -425 315 -594 189 -200 431 -328 740 -390 294 -59 500 -66 1950 -66 1281 0 1525 6 1779 41 604 84 993 385 1165 902 108 325 126 667 118 2352 -3 651 -10 1205 -16 1300 -37 562 -155 877 -428 1141 -261 253 -560 362 -1093 400 -141 10 -2544 21 -2785 13z m3344 -635 c79 -18 154 -61 217 -123 104 -105 149 -241 126 -379 -40 -233 -236 -389 -469 -374 -135 8 -249 71 -330 181 -94 127 -110 302 -41 447 90 190 299 294 497 248z m-1845 -534 c709 -93 1317 -586 1555 -1259 222 -630 106 -1326 -308 -1845 -558 -699 -1533 -921 -2336 -531 -211 102 -374 220 -541 392 -112 115 -155 167 -234 288 -157 240 -258 512 -296 803 -24 178 -14 459 20 624 171 810 816 1418 1623 1528 135 18 378 18 517 0z"/><path d="M4950 6365 c-414 -60 -772 -318 -958 -690 -99 -199 -146 -459 -122 -674 34 -305 153 -555 364 -767 243 -242 537 -364 881 -366 258 -1 484 66 695 207 325 216 520 542 559 933 19 191 -13 410 -89 591 -134 325 -408 586 -738 705 -174 62 -416 87 -592 61z"/></g></svg> 