<?xml version="1.0" standalone="no"?><!DOCTYPE svg PUBLIC "-//W3C//DTD SVG 20010904//EN" "http://www.w3.org/TR/2001/REC-SVG-20010904/DTD/svg10.dtd"><svg version="1.0" xmlns="http://www.w3.org/2000/svg" width="1024.000000pt" height="1024.000000pt" viewBox="0 0 1024.000000 1024.000000" preserveAspectRatio="xMidYMid meet"><metadata> Created by potrace 1.16, written by Peter Selinger 2001-2019 </metadata><g transform="translate(0.000000,1024.000000) scale(0.100000,-0.100000)" fill="#000000" stroke="none"><path d="M1 8968 c1 -772 5 -1210 10 -1113 25 503 94 815 253 1140 271 552 759 958 1355 1124 211 59 459 95 771 110 103 5 -312 9 -1112 10 l-1278 1 1 -1272z"/><path d="M7750 10233 c512 -23 788 -70 1081 -184 578 -225 1039 -702 1244 -1290 95 -271 143 -591 158 -1049 2 -47 4 503 5 1223 l2 1307 -1277 -2 c-703 -1 -1249 -3 -1213 -5z"/><path d="M3840 8864 c-710 -30 -984 -85 -1355 -269 -201 -100 -310 -180 -485 -355 -175 -175 -255 -284 -355 -485 -118 -237 -186 -463 -224 -739 -43 -312 -51 -620 -51 -1926 0 -1089 7 -1460 31 -1720 53 -575 246 -1026 585 -1371 l75 -77 -38 -6 c-54 -9 -142 -16 -118 -10 11 3 27 8 35 11 8 4 18 7 22 7 4 1 13 7 20 15 11 12 9 13 -12 6 -14 -4 -38 -9 -54 -12 -16 -3 -31 -13 -33 -22 -4 -17 -102 -46 -145 -45 -10 0 -18 -3 -18 -8 0 -5 -4 -7 -10 -3 -5 3 -21 3 -35 -1 -19 -5 -23 -9 -14 -14 7 -5 -7 -11 -37 -16 -27 -4 -86 -24 -131 -44 -45 -21 -96 -41 -114 -45 -24 -6 -28 -9 -18 -17 11 -8 10 -9 -4 -4 -20 6 -133 -41 -174 -74 -19 -15 -28 -17 -34 -9 -5 9 -20 3 -50 -19 -24 -18 -47 -32 -52 -32 -19 0 -127 -82 -121 -92 4 -7 2 -8 -5 -4 -6 4 -18 2 -26 -4 -8 -6 -19 -9 -25 -5 -5 3 -10 1 -10 -5 0 -6 -4 -9 -9 -5 -15 8 -104 -45 -158 -95 -26 -24 -54 -43 -62 -41 -7 1 -10 -2 -6 -8 3 -6 0 -8 -9 -5 -18 7 -90 -38 -110 -69 -9 -12 -36 -36 -61 -51 -25 -16 -45 -32 -45 -36 0 -4 -8 -10 -17 -13 -10 -2 -25 -8 -35 -12 -34 -14 -155 250 -223 484 -65 227 -102 494 -114 836 -5 118 -8 -346 -9 -1127 l-2 -1328 3398 1 c1868 1 3382 5 3363 9 -30 7 -53 28 -51 45 1 12 -31 65 -40 65 -5 0 -15 18 -21 40 -12 41 -23 50 -33 28 -3 -7 -3 -3 -1 8 4 15 -2 28 -18 41 -25 19 -57 73 -57 94 0 7 -29 42 -64 79 -36 37 -68 79 -71 93 -4 15 -12 24 -20 21 -7 -3 -16 0 -21 7 -5 8 -3 10 7 4 8 -5 3 4 -10 18 -27 30 -42 37 -20 10 10 -12 10 -14 1 -9 -14 9 -47 67 -44 79 1 5 -2 6 -8 2 -13 -8 -82 61 -124 124 -18 26 -38 45 -44 43 -7 -2 -12 3 -12 12 0 8 -23 34 -51 58 -29 24 -76 64 -105 91 -30 26 -58 47 -63 47 -6 0 -12 9 -16 20 -3 11 -23 27 -43 37 -46 21 -103 69 -94 79 4 4 -1 4 -11 1 -11 -4 -16 -3 -12 4 8 12 -44 55 -61 51 -7 -1 -22 11 -33 27 -12 16 -46 42 -75 56 -29 14 -62 35 -74 45 -13 12 -39 20 -73 23 -30 2 68 4 216 5 582 5 1148 28 1373 57 353 47 723 177 962 340 294 200 517 458 666 770 139 292 205 588 236 1061 18 281 18 2783 0 3069 -23 359 -59 576 -138 815 -107 326 -263 573 -513 812 -144 138 -265 223 -446 313 -309 153 -601 225 -1050 256 -145 10 -2658 21 -2865 13z m2710 -684 c431 -22 646 -66 885 -180 127 -61 236 -141 350 -261 144 -150 220 -278 290 -494 63 -190 89 -377 105 -735 27 -624 20 -2556 -10 -2975 -27 -365 -100 -631 -232 -842 -61 -98 -210 -260 -306 -333 -77 -59 -272 -157 -383 -193 -324 -106 -628 -121 -2254 -114 -1303 6 -1541 15 -1817 72 -575 117 -934 471 -1057 1039 -63 289 -75 606 -75 1991 -1 1557 12 1771 124 2106 71 213 157 355 305 504 140 139 280 228 468 294 255 90 461 116 1036 131 410 11 2313 4 2571 -10z m-865 -7018 c-3 -3 -11 0 -18 7 -9 10 -8 11 6 5 10 -3 15 -9 12 -12z"/><path d="M6985 7553 c-215 -77 -344 -288 -306 -502 43 -242 270 -409 506 -372 226 35 385 219 385 446 0 179 -95 328 -259 407 -59 29 -77 33 -171 35 -81 3 -116 -1 -155 -14z"/><path d="M4975 7044 c-303 -35 -493 -88 -716 -199 -304 -153 -562 -382 -752 -670 -393 -596 -420 -1377 -70 -1999 165 -293 446 -574 739 -739 542 -305 1204 -327 1771 -57 966 460 1374 1626 904 2585 -297 605 -875 1006 -1550 1075 -97 9 -258 11 -326 4z m342 -689 c393 -64 742 -319 918 -672 173 -346 179 -747 16 -1089 -69 -144 -140 -245 -250 -355 -181 -180 -385 -290 -643 -345 -116 -25 -361 -25 -478 0 -259 56 -463 166 -645 350 -231 232 -349 504 -362 831 -14 358 109 670 366 926 193 193 415 310 675 353 110 19 291 19 403 1z"/><path d="M10230 2518 c0 -378 -65 -793 -165 -1063 -265 -715 -863 -1223 -1615 -1374 -215 -43 -395 -60 -720 -70 -151 -5 283 -8 1133 -9 l1377 -2 0 1305 c0 718 -2 1305 -5 1305 -3 0 -5 -42 -5 -92z"/><path d="M631 1356 c-9 -10 -8 -15 2 -19 8 -3 13 3 13 14 0 23 0 23 -15 5z"/></g></svg> 