<?xml version="1.0" standalone="no"?><!DOCTYPE svg PUBLIC "-//W3C//DTD SVG 20010904//EN" "http://www.w3.org/TR/2001/REC-SVG-20010904/DTD/svg10.dtd"><svg version="1.0" xmlns="http://www.w3.org/2000/svg" width="1024.000000pt" height="1024.000000pt" viewBox="0 0 1024.000000 1024.000000" preserveAspectRatio="xMidYMid meet"><metadata> Created by potrace 1.16, written by Peter Selinger 2001-2019 </metadata><g transform="translate(0.000000,1024.000000) scale(0.100000,-0.100000)" fill="#000000" stroke="none"><path d="M2 8823 c1 -897 4 -1315 9 -1138 8 304 19 451 50 645 77 487 282 901 609 1230 355 357 802 566 1355 634 201 24 268 29 600 36 196 4 -253 7 -1152 8 l-1473 2 2 -1417z"/><path d="M3098 10233 c23 -2 61 -2 85 0 23 2 4 4 -43 4 -47 0 -66 -2 -42 -4z"/><path d="M3502 10233 c70 -2 187 -2 260 0 73 1 16 3 -127 3 -143 0 -203 -2 -133 -3z"/><path d="M7678 10229 c628 -17 956 -81 1317 -258 228 -112 398 -235 577 -417 285 -289 468 -620 563 -1019 62 -259 84 -465 94 -901 5 -204 8 187 9 1149 l2 1457 -1417 -2 c-902 -1 -1319 -4 -1145 -9z"/><path d="M4090 8873 c-259 -4 -655 -24 -779 -38 -513 -59 -910 -224 -1233 -510 -358 -316 -580 -750 -657 -1281 -45 -308 -60 -783 -63 -1934 -1 -448 -3 -789 -5 -756 l-4 58 -42 -6 c-23 -4 -45 -12 -49 -19 -4 -7 -8 -8 -8 -4 0 4 -9 3 -20 -3 -19 -10 -25 -4 -21 22 0 4 -7 4 -16 1 -11 -4 -13 -8 -5 -11 12 -4 17 -32 6 -32 -4 0 -13 8 -20 18 -12 15 -12 15 -7 -5 4 -18 1 -23 -13 -24 -47 -4 -81 -7 -100 -8 -14 -1 -24 -10 -28 -25 -4 -17 -17 -27 -51 -36 -25 -7 -45 -17 -45 -22 0 -5 -4 -6 -10 -3 -5 3 -10 1 -10 -5 0 -6 -4 -9 -9 -5 -5 3 -12 1 -16 -5 -3 -5 -19 -10 -35 -10 -15 0 -31 -6 -33 -12 -3 -8 -6 -6 -6 5 -1 14 -5 16 -20 8 -10 -6 -21 -8 -24 -4 -4 3 -20 -6 -37 -21 -17 -14 -36 -26 -41 -26 -6 0 -7 -5 -3 -12 5 -8 2 -9 -9 -5 -10 4 -16 2 -14 -6 1 -7 -6 -12 -16 -12 -10 0 -22 -7 -27 -15 -5 -8 -19 -15 -32 -15 -17 0 -22 -5 -20 -18 2 -14 -2 -18 -15 -15 -10 2 -17 9 -16 15 1 6 -6 9 -17 6 -11 -3 -20 -10 -20 -15 0 -5 -4 -7 -9 -4 -5 4 -11 1 -13 -5 -2 -7 -15 -13 -29 -15 -13 -1 -28 -3 -32 -3 -5 -1 -5 -6 -1 -13 5 -8 2 -9 -10 -5 -10 4 -24 -1 -35 -12 -11 -11 -22 -16 -26 -13 -3 4 -3 -2 1 -13 5 -16 4 -18 -6 -8 -17 16 -70 -3 -70 -26 0 -10 -18 -26 -45 -39 -25 -12 -45 -27 -45 -32 0 -6 -5 -8 -12 -4 -7 4 -8 3 -4 -5 4 -6 0 -18 -8 -27 -9 -8 -16 -13 -16 -9 0 3 -10 -3 -22 -15 -12 -11 -30 -20 -39 -20 -10 0 -20 -6 -22 -12 -4 -8 -6 -7 -6 4 -1 11 -7 15 -21 11 -20 -5 -20 1 -23 483 -1 269 -3 -590 -5 -1908 l-2 -2398 5120 0 5120 0 -2 1458 c-1 989 -4 1358 -9 1147 -8 -337 -27 -558 -64 -761 -89 -483 -295 -870 -637 -1199 -334 -322 -729 -509 -1232 -585 -76 -11 -140 -19 -142 -17 -6 6 -54 137 -54 148 0 6 4 8 9 5 5 -4 1 12 -10 33 -10 22 -16 46 -14 53 3 8 -1 30 -9 49 l-15 34 -9 -25 c-9 -24 -10 -24 -17 13 -4 22 -11 34 -14 28 -4 -6 -17 22 -29 63 -13 41 -29 77 -37 80 -10 3 -15 19 -15 46 0 27 -4 39 -12 38 -9 -2 -12 10 -10 44 2 38 -2 51 -23 74 -14 16 -25 40 -26 58 -1 18 -3 24 -6 13 -10 -38 -43 49 -43 113 0 33 -4 60 -10 60 -5 0 -7 7 -4 15 4 8 1 15 -7 15 -7 0 -9 3 -6 6 3 4 0 15 -7 26 -8 11 -12 29 -9 41 4 21 4 21 -10 4 -15 -18 -16 -12 -29 116 -1 9 -6 17 -11 17 -4 0 -6 4 -2 10 9 15 -6 61 -19 53 -8 -4 -8 -3 0 6 12 13 7 58 -6 66 -4 3 -10 -2 -14 -10 -3 -8 -1 -17 4 -20 6 -4 10 -11 10 -17 0 -6 -8 0 -17 13 -28 38 -43 67 -43 85 0 9 -9 31 -19 48 -10 17 -22 46 -26 63 -3 18 -13 33 -20 33 -8 0 -11 -8 -8 -22 4 -20 3 -21 -7 -5 -8 12 -19 15 -38 11 -15 -3 29 19 98 48 536 229 915 644 1099 1204 73 222 110 424 131 714 40 563 40 2679 0 3260 -20 288 -57 489 -131 714 -115 351 -300 636 -562 866 -354 312 -797 477 -1397 520 -288 20 -861 30 -1690 28 -465 -1 -906 -3 -980 -5z m2345 -693 c419 -17 620 -44 820 -111 444 -149 733 -468 849 -939 74 -301 81 -483 81 -2015 0 -1335 -5 -1542 -45 -1816 -52 -353 -170 -607 -380 -817 -104 -104 -190 -166 -315 -226 -114 -56 -272 -113 -282 -102 -4 3 -1 6 6 6 7 0 9 4 6 10 -3 6 1 7 10 4 11 -5 14 -2 9 10 -3 9 -10 16 -16 16 -5 0 -7 4 -4 8 3 5 -8 24 -25 43 -16 19 -29 39 -29 46 0 6 -8 19 -17 29 -10 10 -18 20 -19 23 -5 34 -44 58 -44 29 -1 -7 -7 -2 -15 12 -9 18 -10 29 -3 37 8 10 6 13 -6 13 -10 0 -16 7 -14 17 2 10 -3 18 -10 18 -7 0 -21 15 -32 33 -12 19 -15 30 -8 26 7 -4 -1 7 -19 24 -17 18 -35 41 -38 52 -4 11 -9 19 -13 17 -4 -2 -19 11 -35 29 -24 28 -26 34 -13 47 13 13 11 18 -13 41 -15 14 -30 23 -34 19 -4 -3 -14 2 -23 13 -8 10 -12 12 -8 4 5 -10 0 -8 -15 4 -16 14 -18 22 -9 27 7 4 19 2 28 -4 13 -11 13 -10 1 5 -7 10 -18 15 -23 12 -6 -4 -14 0 -19 7 -4 8 -13 14 -18 14 -14 0 -70 62 -63 69 3 3 1 6 -5 6 -6 0 -13 9 -16 21 -3 12 -10 18 -15 15 -5 -3 -19 5 -31 18 -19 20 -19 23 -4 23 10 0 27 -7 38 -16 14 -11 13 -8 -4 11 -20 23 -27 25 -49 17 -15 -6 -24 -8 -21 -4 6 6 -31 54 -59 79 -7 6 -22 19 -33 29 -10 9 -19 16 -19 14 0 -2 -27 22 -59 53 -33 31 -84 74 -115 95 -30 21 -53 42 -50 47 3 5 0 15 -6 23 -16 19 -36 20 -24 2 5 -7 2 -5 -7 5 -9 9 -20 14 -24 10 -5 -4 -5 -1 -1 6 4 6 0 19 -8 28 -15 14 -21 11 -17 -10 1 -5 -5 -4 -13 3 -8 7 -12 19 -9 28 5 13 3 14 -16 3 -13 -6 -24 -10 -26 -8 -2 2 29 23 68 47 372 228 663 578 812 976 267 714 98 1510 -435 2045 -370 371 -847 570 -1370 570 -969 0 -1774 -702 -1916 -1670 -13 -92 -15 -158 -11 -325 6 -207 10 -240 62 -465 4 -19 1 -17 -10 7 -12 26 -21 32 -40 31 -14 -1 -25 -8 -25 -15 0 -14 -46 -18 -77 -6 -16 6 -15 8 7 14 14 4 -10 6 -55 6 -44 -1 -132 0 -195 1 -63 1 -124 1 -135 0 -14 -2 -19 2 -17 15 4 21 -26 23 -34 3 -4 -12 -27 -15 -97 -15 -82 0 -94 -2 -106 -21 -9 -13 -24 -20 -47 -20 -33 0 -42 15 -19 32 6 4 -9 8 -33 8 -29 0 -44 -5 -48 -15 -4 -9 -18 -15 -38 -14 l-31 1 30 8 c25 7 21 8 -20 6 -41 -1 -50 -5 -49 -19 1 -9 1 -17 0 -17 0 0 -22 7 -48 14 l-47 15 -3 -27 c-3 -30 -34 -39 -32 -9 1 9 -4 17 -12 17 -9 0 -14 -19 -17 -62 -2 -35 -4 326 -5 802 -3 1317 15 1615 118 1923 137 409 408 680 817 817 195 65 400 94 768 109 282 12 2402 12 2680 1z m-1060 -1841 c532 -108 933 -559 984 -1105 35 -380 -102 -744 -382 -1012 -168 -160 -359 -262 -587 -313 -97 -21 -124 -23 -115 -9 4 6 11 8 16 5 5 -4 18 -4 29 0 16 5 17 10 8 31 -6 13 -13 22 -16 19 -3 -2 -14 1 -26 7 -20 10 -20 10 -6 -7 14 -18 14 -18 -15 0 -39 24 -44 30 -22 22 9 -4 17 -2 17 4 0 5 -14 12 -31 16 -18 3 -40 19 -56 39 -26 35 -63 46 -63 19 0 -8 -5 -15 -11 -15 -5 0 -7 5 -4 10 3 6 2 10 -4 10 -6 0 -15 9 -22 21 -10 19 -9 20 13 15 21 -6 21 -5 -2 5 -27 12 -43 21 -108 57 -23 13 -48 25 -55 26 -39 8 -67 19 -67 26 0 12 -59 30 -65 20 -3 -4 0 -11 5 -13 6 -3 5 -4 -2 -2 -7 1 -12 7 -11 13 3 13 -61 27 -76 17 -6 -3 -11 -1 -11 5 0 6 -4 9 -9 6 -5 -3 -14 1 -21 9 -9 10 -18 12 -37 4 -23 -8 -24 -8 -13 6 11 13 9 15 -14 15 -15 0 -25 -4 -21 -10 4 -6 -1 -7 -11 -3 -11 4 -13 8 -6 11 7 2 12 10 12 18 0 8 6 14 13 15 6 0 1 5 -13 11 -22 9 -52 15 -170 34 -19 3 -54 14 -77 25 -30 13 -68 19 -125 21 -46 0 -68 3 -50 5 48 6 39 23 -14 23 l-45 0 22 -32 c12 -18 15 -26 6 -18 -9 8 -38 52 -66 98 -314 524 -195 1209 277 1596 292 239 672 331 1047 255z m-2650 -1729 c14 -6 4 -9 -37 -9 -33 -1 -58 3 -58 9 0 12 67 12 95 0z m505 -11 c0 -5 -7 -9 -15 -9 -9 0 -12 6 -9 15 6 15 24 11 24 -6z m-1045 -29 c-3 -5 -12 -10 -18 -10 -7 0 -6 4 3 10 19 12 23 12 15 0z m-1077 -244 c-2 -1 -15 -10 -30 -19 -16 -10 -28 -13 -28 -8 0 5 9 13 20 16 11 4 18 11 15 16 -3 5 1 6 10 3 9 -4 15 -7 13 -8z m3429 -32 c-3 -3 -12 -4 -19 -1 -8 3 -5 6 6 6 11 1 17 -2 13 -5z m445 -152 c10 -4 14 -12 10 -19 -5 -8 -14 -6 -32 7 -25 20 -13 26 22 12z m-4392 -42 c0 -5 -2 -10 -4 -10 -3 0 -8 5 -11 10 -3 6 -1 10 4 10 6 0 11 -4 11 -10z m-235 -120 c9 15 25 12 19 -4 -7 -17 -30 -15 -47 4 -10 12 -9 12 5 2 11 -9 18 -10 23 -2z m-40 -9 c3 -6 -5 -15 -17 -21 -21 -10 -21 -10 -6 3 10 8 15 17 11 20 -3 4 -4 7 0 7 3 0 8 -4 12 -9z m-65 -55 c0 -2 -6 -9 -14 -15 -11 -9 -16 -9 -22 0 -4 7 -3 9 4 5 6 -3 13 -2 17 4 6 10 15 14 15 6z m4967 -32 c-3 -3 -12 -4 -19 -1 -8 3 -5 6 6 6 11 1 17 -2 13 -5z m1613 -1166 c0 -12 -14 -10 -35 5 -10 8 -15 19 -11 26 6 9 13 8 27 -5 10 -9 19 -21 19 -26z"/><path d="M7013 7565 c-356 -96 -463 -535 -191 -780 263 -237 686 -88 749 264 56 316 -250 599 -558 516z"/><path d="M3155 4650 c3 -5 13 -10 21 -10 8 0 14 5 14 10 0 6 -9 10 -21 10 -11 0 -17 -4 -14 -10z"/><path d="M6115 3434 c6 -5 23 -20 40 -34 29 -24 29 -24 10 -2 -11 13 -29 28 -40 34 -11 6 -15 6 -10 2z"/><path d="M6226 3336 c3 -8 -2 -16 -13 -19 -16 -4 -16 -5 0 -6 9 0 17 -7 18 -13 0 -7 4 -4 8 7 9 22 4 45 -10 45 -4 0 -6 -6 -3 -14z"/><path d="M6294 3270 c0 -13 7 -20 20 -20 18 0 19 1 1 20 -10 11 -19 20 -19 20 -1 0 -2 -9 -2 -20z"/><path d="M6399 3188 c7 -9 10 -22 7 -27 -9 -13 13 -26 25 -14 6 6 -1 19 -18 34 -15 13 -22 16 -14 7z"/><path d="M6450 3136 c0 -2 8 -10 18 -17 15 -13 16 -12 3 4 -13 16 -21 21 -21 13z"/><path d="M6518 3067 c12 -13 20 -26 17 -29 -3 -2 2 -5 10 -5 11 0 8 8 -12 29 -15 15 -29 28 -32 28 -2 0 5 -10 17 -23z"/><path d="M6668 2882 c9 -14 18 -20 20 -13 2 6 9 8 15 4 7 -3 4 3 -6 14 -9 11 -23 20 -31 20 -12 0 -11 -5 2 -25z"/><path d="M6870 2672 c12 -18 25 -31 28 -27 3 3 -7 18 -23 33 l-28 27 23 -33z"/><path d="M7026 2405 c4 -8 10 -12 15 -9 11 6 2 24 -11 24 -5 0 -7 -7 -4 -15z"/><path d="M5340 3932 c0 -12 19 -26 26 -19 2 2 -2 10 -11 17 -9 8 -15 8 -15 2z"/><path d="M125 3880 c-3 -6 1 -7 9 -4 18 7 21 14 7 14 -6 0 -13 -4 -16 -10z"/><path d="M90 3860 c-9 -6 -10 -10 -3 -10 6 0 15 5 18 10 8 12 4 12 -15 0z"/><path d="M7936 633 c-6 -14 -5 -15 5 -6 7 7 10 15 7 18 -3 3 -9 -2 -12 -12z"/><path d="M7970 571 c0 -5 5 -13 10 -16 6 -3 10 -2 10 4 0 5 -4 13 -10 16 -5 3 -10 2 -10 -4z"/><path d="M7991 504 c0 -11 3 -14 6 -6 3 7 2 16 -1 19 -3 4 -6 -2 -5 -13z"/></g></svg> 