<?xml version="1.0" encoding="UTF-8"?>
<!-- Generator: visioncortex VTracer 0.6.12 -->
<svg version="1.1" xmlns="http://www.w3.org/2000/svg" width="800" height="600">
<path d="M0 0 C264 0 528 0 800 0 C800 198 800 396 800 600 C536 600 272 600 0 600 C0 402 0 204 0 0 Z " fill="#55A0D3" transform="translate(0,0)"/>
<path d="M0 0 C1.069 -0.009 2.138 -0.019 3.239 -0.028 C22.581 0.049 39.805 5.342 53.625 19.25 C56.493 22.72 58.656 26.209 60.625 30.25 C60.84 30.681 60.84 30.681 61.926 32.859 C65.224 40.521 65.305 48.036 64.625 56.25 C64.597 56.584 64.597 56.584 64.458 58.274 C62.62 77.057 53.373 92.871 41.625 107.25 C41.157 107.825 40.689 108.4 40.208 108.993 C33.787 116.818 26.935 124.235 19.964 131.57 C16.265 135.464 12.72 139.434 9.294 143.573 C7.518 145.357 5.889 146.194 3.625 147.25 C2.211 148.941 2.211 148.941 1 150.812 C-1.181 154.153 -1.181 154.153 -3.375 155.25 C-5.375 155.29 -7.375 155.293 -9.375 155.25 C-9.727 154.549 -10.079 153.847 -10.441 153.125 C-15.051 144.267 -20.372 137.854 -27.938 131.426 C-47.391 114.061 -71.373 90.25 -73.641 63.061 C-73.821 59.496 -73.905 55.944 -73.938 52.375 C-73.945 51.805 -73.945 51.805 -73.982 48.917 C-73.835 36.899 -69.625 26.903 -61.375 18.121 C-44.181 1.941 -22.455 0.135 0 0 Z " fill="#A7863E" transform="translate(399.375,286.75)"/>
<path d="M0 0 C0.91 0.009 1.82 0.018 2.758 0.027 C3.107 0.033 3.107 0.033 4.875 0.062 C5.04 1.053 5.04 1.053 5.875 6.062 C3.895 6.723 1.915 7.382 -0.125 8.062 C-0.125 9.712 -0.125 11.363 -0.125 13.062 C2.185 13.392 4.495 13.723 6.875 14.062 C6.875 16.043 6.875 18.022 6.875 20.062 C2.585 20.062 -1.705 20.062 -6.125 20.062 C-6.125 22.373 -6.125 24.683 -6.125 27.062 C-12.725 27.062 -19.325 27.062 -26.125 27.062 C-26.125 29.373 -26.125 31.683 -26.125 34.062 C-32.781 35.301 -39.372 35.154 -46.125 35.062 C-46.125 37.373 -46.125 39.683 -46.125 42.062 C-51.886 43.361 -57.212 44.32 -63.125 44.062 C-62.795 46.373 -62.465 48.683 -62.125 51.062 C-66.302 52.654 -69.657 53.275 -74.125 53.062 C-73.795 55.373 -73.465 57.683 -73.125 60.062 C-75.435 61.053 -77.745 62.043 -80.125 63.062 C-79.939 63.444 -79.939 63.444 -79 65.375 C-78.856 65.818 -78.856 65.818 -78.125 68.062 C-78.785 69.053 -79.445 70.043 -80.125 71.062 C-79.135 72.382 -78.145 73.702 -77.125 75.062 C-77.29 75.392 -77.29 75.392 -78.125 77.062 C-90.592 61.792 -90.592 61.792 -91.625 54.562 C-91.125 52.062 -91.125 52.062 -89.125 50.062 C-89.146 48.908 -89.166 47.752 -89.188 46.562 C-89.167 45.408 -89.146 44.252 -89.125 43.062 C-85.69 40.772 -84.14 40.884 -80.125 41.062 C-80.455 38.752 -80.785 36.442 -81.125 34.062 C-79.356 33.558 -77.584 33.059 -75.812 32.562 C-74.826 32.284 -73.84 32.006 -72.824 31.719 C-70.125 31.062 -70.125 31.062 -67.125 31.062 C-67.125 28.752 -67.125 26.442 -67.125 24.062 C-62.906 22.014 -59.471 21.85 -54.812 21.938 C-53.558 21.956 -52.304 21.974 -51.012 21.992 C-50.535 22.004 -50.535 22.004 -48.125 22.062 C-48.125 19.752 -48.125 17.442 -48.125 15.062 C-43.42 13.201 -39.249 12.812 -34.25 12.938 C-33.906 12.942 -33.906 12.942 -32.164 12.965 C-30.484 12.988 -28.805 13.024 -27.125 13.062 C-27.125 11.082 -27.125 9.103 -27.125 7.062 C-23.815 5.408 -20.134 5.962 -16.5 6 C-16.099 6.002 -16.099 6.002 -14.07 6.014 C-12.089 6.025 -10.107 6.043 -8.125 6.062 C-8.063 5.66 -8.063 5.66 -7.75 3.625 C-7.544 2.779 -7.337 1.934 -7.125 1.062 C-4.6 -0.2 -2.813 -0.036 0 0 Z " fill="#45363A" transform="translate(424.125,313.9375)"/>
<path d="M0 0 C-0.99 0.33 -1.98 0.66 -3 1 C-3.701 2.652 -4.358 4.324 -5 6 C-6.59 8.717 -8.285 11.361 -10 14 C-9.01 14 -8.02 14 -7 14 C-5.928 14.023 -4.855 14.046 -3.75 14.07 C-3.131 14.079 -3.131 14.079 0 14.125 C1.238 14.148 2.475 14.171 3.75 14.195 C7 14 7 14 10 12 C12.635 11.773 12.635 11.773 15.762 11.805 C16.321 11.808 16.321 11.808 19.15 11.824 C19.734 11.833 19.734 11.833 22.688 11.875 C23.277 11.88 23.277 11.88 26.26 11.902 C29.173 11.926 32.087 11.959 35 12 C35.165 12.66 35.165 12.66 36 16 C34.35 16.495 34.35 16.495 26 19 C25.67 20.98 25.34 22.96 25 25 C23.819 24.988 22.638 24.977 21.422 24.965 C19.865 24.955 18.307 24.946 16.75 24.938 C15.973 24.929 15.195 24.921 14.395 24.912 C13.64 24.909 12.886 24.906 12.109 24.902 C11.418 24.897 10.727 24.892 10.015 24.886 C7.9 25.006 6.034 25.424 4 26 C4 27.98 4 29.96 4 32 C3.203 32.049 2.407 32.098 1.586 32.148 C-8.938 32.891 -8.938 32.891 -14 35 C-14.33 37.31 -14.66 39.62 -15 42 C-19.62 42.66 -24.24 43.32 -29 44 C-29.33 46.64 -29.66 49.28 -30 52 C-31.485 52.165 -31.485 52.165 -39 53 C-39.103 54.279 -39.206 55.558 -39.312 56.875 C-39.488 59.055 -39.488 59.055 -40 61 C-43 63 -43 63 -46 63 C-46.117 58.709 -46.188 54.418 -46.25 50.125 C-46.284 48.921 -46.317 47.717 -46.352 46.477 C-46.487 33.978 -42.602 24.028 -34 14.871 C-26.603 7.91 -10.705 -3.872 0 0 Z " fill="#7B6B47" transform="translate(372,290)"/>
<path d="M0 0 C2.64 0.33 5.28 0.66 8 1 C8 2.98 8 4.96 8 7 C5.03 7 2.06 7 -1 7 C-1 8.98 -1 10.96 -1 13 C2.96 13.66 6.92 14.32 11 15 C11.33 13.35 11.66 11.7 12 10 C13.32 10 14.64 10 16 10 C16 11.98 16 13.96 16 16 C15.216 16.082 14.433 16.165 13.625 16.25 C11 17 11 17 9.836 19.047 C9.56 19.691 9.284 20.336 9 21 C7.563 21.027 6.125 21.046 4.688 21.062 C4.287 21.068 4.287 21.068 2.262 21.098 C0 21 0 21 -3 20 C-3 17.69 -3 15.38 -3 13 C-6.3 13.33 -9.6 13.66 -13 14 C-13 15.65 -13 17.3 -13 19 C-12.34 19.165 -12.34 19.165 -9 20 C-9 21.98 -9 23.96 -9 26 C-10.437 26.027 -11.875 26.046 -13.312 26.062 C-13.713 26.068 -13.713 26.068 -15.738 26.098 C-18 26 -18 26 -21 25 C-21.33 26.98 -21.66 28.96 -22 31 C-25.462 32.067 -28.64 32.102 -32.25 32.062 C-32.789 32.058 -32.789 32.058 -35.516 32.035 C-36.335 32.024 -37.155 32.012 -38 32 C-38 33.98 -38 35.96 -38 38 C-42.961 39.323 -47.911 39.089 -53 39 C-52.835 39.99 -52.835 39.99 -52 45 C-55.63 45.99 -59.26 46.98 -63 48 C-62.67 49.32 -62.34 50.64 -62 52 C-65.088 53.765 -66.233 54 -70 54 C-69.01 55.98 -68.02 57.96 -67 60 C-67.825 60.165 -67.825 60.165 -72 61 C-71.361 61.743 -70.721 62.485 -70.062 63.25 C-67.434 66.755 -67 68.696 -67 73 C-69.304 70.783 -71.591 68.55 -73.875 66.312 C-74.526 65.687 -75.177 65.061 -75.848 64.416 C-81.889 58.468 -81.889 58.468 -83 54 C-83 53.01 -83 52.02 -83 51 C-83.631 48.988 -84.294 46.986 -85 45 C-83.02 44.34 -81.04 43.68 -79 43 C-79.66 41.02 -80.32 39.04 -81 37 C-79.907 36.691 -78.814 36.381 -77.688 36.062 C-75.446 35.417 -73.213 34.738 -71 34 C-71 32.02 -71 30.04 -71 28 C-68.69 27.67 -68.69 27.67 -57 26 C-56.67 24.02 -56.34 22.04 -56 20 C-53.195 19.67 -53.195 19.67 -39 18 C-38.67 16.02 -38.34 14.04 -38 12 C-31.73 12 -25.46 12 -19 12 C-19 9.69 -19 7.38 -19 5 C-13.06 5.33 -7.12 5.66 -1 6 C-0.67 4.02 -0.34 2.04 0 0 Z " fill="#2B2830" transform="translate(436,343)"/>
<path d="M0 0 C2.142 -0.137 4.282 -0.226 6.426 -0.307 C7.116 -0.353 7.807 -0.4 8.518 -0.448 C10.512 -0.49 10.512 -0.49 14.051 0.131 C17.022 3.507 18.006 5.247 18.239 9.756 C19.051 13.131 19.051 13.131 21.106 14.463 C23.396 15.472 25.672 16.357 28.051 17.131 C28.051 18.451 28.051 19.771 28.051 21.131 C25.081 20.801 22.111 20.471 19.051 20.131 C19.138 21.923 19.246 23.715 19.364 25.506 C19.422 26.504 19.48 27.501 19.54 28.529 C19.624 28.959 19.624 28.959 20.051 31.131 C21.041 31.791 22.031 32.451 23.051 33.131 C18.431 33.461 13.811 33.791 9.051 34.131 C9.051 36.111 9.051 38.091 9.051 40.131 C8.545 40.161 8.545 40.161 5.981 40.314 C4.629 40.399 3.278 40.484 1.926 40.568 C1.261 40.608 0.596 40.647 -0.089 40.688 C-4.099 40.943 -7.999 41.399 -11.949 42.131 C-11.949 44.441 -11.949 46.751 -11.949 49.131 C-12.901 49.191 -13.854 49.252 -14.835 49.314 C-16.09 49.398 -17.344 49.482 -18.636 49.568 C-19.878 49.65 -21.119 49.731 -22.398 49.814 C-25.331 50.076 -28.083 50.479 -30.949 51.131 C-30.949 53.441 -30.949 55.751 -30.949 58.131 C-35.569 59.121 -40.189 60.111 -44.949 61.131 C-44.619 63.441 -44.289 65.751 -43.949 68.131 C-45.269 68.461 -45.269 68.461 -51.949 70.131 C-51.907 71.245 -51.866 72.358 -51.824 73.506 C-51.949 77.131 -51.949 77.131 -53.949 79.131 C-54.646 80.448 -55.318 81.78 -55.949 83.131 C-58.403 77.458 -60.411 72.312 -60.949 66.131 C-60.309 65.966 -59.67 65.801 -59.011 65.631 C-56.949 64.131 -56.949 64.131 -56.496 62.252 C-56.277 60.215 -56.111 58.173 -55.949 56.131 C-54.949 55.131 -54.949 55.131 -52.882 55.033 C-52.47 55.039 -52.47 55.039 -50.386 55.068 C-49.56 55.077 -48.734 55.086 -47.882 55.096 C-47.244 55.107 -46.606 55.119 -45.949 55.131 C-45.949 52.491 -45.949 49.851 -45.949 47.131 C-41.088 44.539 -36.296 44.944 -30.949 45.131 C-30.949 42.821 -30.949 40.511 -30.949 38.131 C-24.632 34.685 -19.045 34.816 -11.949 35.131 C-11.949 33.151 -11.949 31.171 -11.949 29.131 C-8.237 26.723 -4.595 26.866 -0.324 26.943 C0.017 26.944 0.017 26.944 1.739 26.945 C6.77 26.99 6.77 26.99 9.051 28.131 C9.051 26.151 9.051 24.171 9.051 22.131 C12.909 19.978 15.603 18.738 20.051 19.131 C19.886 18.471 19.886 18.471 19.051 15.131 C18.168 15.203 17.285 15.275 16.375 15.35 C9.635 15.871 3.017 16.224 -3.742 15.971 C-5.949 16.131 -5.949 16.131 -8.949 18.131 C-12.164 18.291 -12.164 18.291 -15.886 18.193 C-23.481 18.01 -23.481 18.01 -26.949 19.131 C-25.182 12.242 -21.825 5.901 -15.699 2.131 C-10.408 0.72 -5.441 0.365 0 0 Z " fill="#8D7540" transform="translate(387.94873046875,286.869140625)"/>
<path d="M0 0 C7.75 0.75 7.75 0.75 10 3 C9.34 3 8.68 3 8 3 C8 4.32 8 5.64 8 7 C6.68 7 5.36 7 4 7 C3.67 8.98 3.34 10.96 3 13 C4.98 13 6.96 13 9 13 C8.34 14.98 7.68 16.96 7 19 C3.7 19 0.4 19 -3 19 C-3.144 19.402 -3.144 19.402 -3.875 21.438 C-5 24 -5 24 -7 25 C-9.333 25.04 -11.667 25.043 -14 25 C-14 26.65 -14 28.3 -14 30 C-15.32 30.165 -15.32 30.165 -22 31 C-21.67 32.98 -21.34 34.96 -21 37 C-21.825 37.165 -21.825 37.165 -26 38 C-25.289 39.953 -25.289 39.953 -24 42 C-21.836 42.609 -21.836 42.609 -19.375 42.75 C-18.966 42.778 -18.966 42.778 -16.898 42.922 C-16.272 42.948 -15.645 42.973 -15 43 C-15 40.69 -15 38.38 -15 36 C-12.69 36 -10.38 36 -8 36 C-7.67 34.02 -7.34 32.04 -7 30 C-4.69 30.33 -2.38 30.66 0 31 C-1.192 35.769 -2.795 39.859 -5.098 44.203 C-6 46 -6 46 -7 49 C-6.01 49.33 -5.02 49.66 -4 50 C-4.722 50.351 -5.444 50.701 -6.188 51.062 C-9.307 53.211 -10.855 55.34 -12.887 58.477 C-14 60 -14 60 -16 61 C-18 61.04 -20 61.043 -22 61 C-22.34 60.31 -22.681 59.621 -23.031 58.91 C-26.156 52.851 -29.487 47.941 -34.266 43.07 C-36.162 40.806 -37.03 38.773 -38 36 C-38.33 35.34 -38.66 34.68 -39 34 C-38.67 33.835 -38.67 33.835 -37 33 C-37.66 31.02 -38.32 29.04 -39 27 C-37.35 26.67 -35.7 26.34 -34 26 C-34.33 24.02 -34.66 22.04 -35 20 C-33.68 19.835 -33.68 19.835 -27 19 C-26.67 17.02 -26.34 15.04 -26 13 C-24.02 12.835 -24.02 12.835 -14 12 C-14 10.02 -14 8.04 -14 6 C-13.229 6.012 -12.458 6.023 -11.664 6.035 C-11.163 6.04 -11.163 6.04 -8.625 6.062 C-8.126 6.068 -8.126 6.068 -5.602 6.098 C-3 6 -3 6 -1 5 C-0.375 2.438 -0.375 2.438 0 0 Z " fill="#302935" transform="translate(412,381)"/>
<path d="M0 0 C1.32 0.66 2.64 1.32 4 2 C-4.474 20.743 -18.79 35.737 -32.836 50.495 C-33.436 51.126 -34.035 51.756 -34.652 52.406 C-35.226 53.008 -35.799 53.61 -36.39 54.23 C-37.924 55.916 -39.304 57.662 -40.691 59.469 C-41.453 60.304 -42.215 61.139 -43 62 C-44.32 62 -45.64 62 -47 62 C-46.388 57.841 -44.932 54.715 -43 51 C-41.966 48.68 -40.984 46.342 -40 44 C-41.155 43.835 -41.155 43.835 -47 43 C-47.33 44.98 -47.66 46.96 -48 49 C-50.31 49 -52.62 49 -55 49 C-55 51.31 -55 53.62 -55 56 C-57.97 56 -60.94 56 -64 56 C-64.66 54.35 -65.32 52.7 -66 51 C-65.175 50.835 -65.175 50.835 -61 50 C-61.33 48.02 -61.66 46.04 -62 44 C-59.36 43.67 -56.72 43.34 -54 43 C-54 41.35 -54 39.7 -54 38 C-53.374 37.914 -52.747 37.827 -52.102 37.738 C-49.632 37.314 -47.356 36.857 -45 36 C-43.438 33.375 -43.438 33.375 -43 31 C-39.7 31.33 -36.4 31.66 -33 32 C-32.67 30.35 -32.34 28.7 -32 27 C-33.65 26.67 -35.3 26.34 -37 26 C-36.67 24.02 -36.34 22.04 -36 20 C-34.68 20 -33.36 20 -32 20 C-32 18.02 -32 16.04 -32 14 C-30.02 14 -28.04 14 -26 14 C-25.34 12.02 -24.68 10.04 -24 8 C-23.241 8.058 -22.481 8.116 -21.699 8.176 C-18.729 8.311 -15.952 8.37 -13 8 C-10.812 5.5 -10.812 5.5 -10 3 C-4.25 4.875 -4.25 4.875 -2 6 C-1.34 4.02 -0.68 2.04 0 0 Z " fill="#D19F52" transform="translate(452,368)"/>
<path d="M0 0 C1.254 0.018 2.509 0.036 3.801 0.055 C4.277 0.066 4.277 0.066 6.688 0.125 C6.688 2.105 6.688 4.085 6.688 6.125 C5.7 6.258 4.713 6.391 3.695 6.527 C2.414 6.704 1.133 6.881 -0.188 7.062 C-1.464 7.237 -2.74 7.411 -4.055 7.59 C-7.312 8.125 -7.312 8.125 -9.312 9.125 C-9.938 12.188 -9.938 12.188 -10.312 15.125 C-9.792 14.972 -9.271 14.818 -8.734 14.66 C-5.68 13.985 -2.682 13.781 0.438 13.562 C1.023 13.521 1.023 13.521 3.984 13.309 C4.876 13.248 5.768 13.187 6.688 13.125 C7.017 11.145 7.347 9.165 7.688 7.125 C11.935 6.144 16.161 5.816 20.5 5.562 C21.193 5.519 21.886 5.476 22.6 5.432 C24.295 5.326 25.991 5.225 27.688 5.125 C27.688 7.435 27.688 9.745 27.688 12.125 C23.334 12.965 19.243 13.233 14.812 13.188 C13.66 13.178 12.508 13.169 11.32 13.16 C10.451 13.149 9.583 13.137 8.688 13.125 C8.688 15.435 8.688 17.745 8.688 20.125 C2.927 21.423 -2.4 22.382 -8.312 22.125 C-7.983 24.435 -7.652 26.745 -7.312 29.125 C-11.49 30.716 -14.844 31.338 -19.312 31.125 C-18.983 33.435 -18.652 35.745 -18.312 38.125 C-20.623 39.115 -22.933 40.105 -25.312 41.125 C-24.941 41.888 -24.57 42.651 -24.188 43.438 C-23.899 44.324 -23.61 45.211 -23.312 46.125 C-23.973 47.115 -24.632 48.105 -25.312 49.125 C-24.322 50.445 -23.332 51.765 -22.312 53.125 C-22.642 53.785 -22.973 54.445 -23.312 55.125 C-35.78 39.855 -35.78 39.855 -36.812 32.625 C-36.312 30.125 -36.312 30.125 -34.312 28.125 C-34.333 26.97 -34.354 25.815 -34.375 24.625 C-34.354 23.47 -34.334 22.315 -34.312 21.125 C-30.877 18.835 -29.327 18.947 -25.312 19.125 C-25.642 16.815 -25.973 14.505 -26.312 12.125 C-24.543 11.62 -22.772 11.121 -21 10.625 C-20.014 10.347 -19.028 10.068 -18.012 9.781 C-15.312 9.125 -15.312 9.125 -12.312 9.125 C-12.312 6.815 -12.312 4.505 -12.312 2.125 C-8.094 0.076 -4.659 -0.087 0 0 Z " fill="#462D39" transform="translate(369.3125,335.875)"/>
<path d="M0 0 C19.027 -0.758 35.506 4.812 49.583 17.591 C52.672 20.663 55.002 24.147 57 28 C56.67 28.165 56.67 28.165 55 29 C55 29.99 55 30.98 55 32 C53.35 32 51.7 32 50 32 C49.34 30.02 48.68 28.04 48 26 C49.32 25.67 50.64 25.34 52 25 C50.875 23.062 50.875 23.062 49 21 C45.812 20.25 45.812 20.25 43 20 C43 20.99 43 21.98 43 23 C39.37 23 35.74 23 32 23 C32 24.65 32 26.3 32 28 C26.39 28 20.78 28 15 28 C15 29.98 15 31.96 15 34 C11.04 33.34 7.08 32.68 3 32 C3.99 31.67 4.98 31.34 6 31 C5.835 30.484 5.67 29.969 5.5 29.438 C4.85 26.266 4.938 23.228 5 20 C7.97 20.33 10.94 20.66 14 21 C13.67 19.68 13.34 18.36 13 17 C11.004 16.051 11.004 16.051 8.562 15.312 C4.28 13.612 4.28 13.612 3.031 10.887 C2.562 8.5 2.562 8.5 2.316 6.219 C1.972 3.801 1.189 2.118 0 0 Z " fill="#AC8D47" transform="translate(402,287)"/>
<path d="M0 0 C0.559 0.003 0.559 0.003 3.389 0.02 C3.972 0.028 3.972 0.028 6.926 0.07 C7.515 0.075 7.515 0.075 10.498 0.098 C13.412 0.121 16.325 0.154 19.238 0.195 C19.403 0.855 19.403 0.855 20.238 4.195 C16.938 5.185 13.638 6.175 10.238 7.195 C9.908 9.175 9.578 11.155 9.238 13.195 C8.058 13.184 6.877 13.172 5.66 13.16 C4.103 13.151 2.546 13.142 0.988 13.133 C0.211 13.124 -0.566 13.116 -1.367 13.107 C-2.121 13.104 -2.875 13.101 -3.652 13.098 C-4.344 13.092 -5.035 13.087 -5.747 13.082 C-7.861 13.201 -9.728 13.619 -11.762 14.195 C-11.762 16.175 -11.762 18.155 -11.762 20.195 C-12.547 20.256 -13.332 20.316 -14.141 20.379 C-19.715 20.824 -25.238 21.317 -30.762 22.195 C-31.092 20.545 -31.422 18.895 -31.762 17.195 C-35.722 17.195 -39.682 17.195 -43.762 17.195 C-42.762 12.195 -42.762 12.195 -40.762 10.195 C-38.954 10.023 -37.139 9.929 -35.324 9.883 C-32.324 9.672 -32.324 9.672 -29.762 9.195 C-27.824 6.758 -27.824 6.758 -26.762 4.195 C-23.24 1.681 -19.9 2.054 -15.699 2.195 C-9.665 2.398 -5.894 -0.06 0 0 Z " fill="#2E2D35" transform="translate(387.76171875,301.8046875)"/>
<path d="M0 0 C2.142 -0.137 4.282 -0.226 6.426 -0.307 C7.116 -0.353 7.807 -0.4 8.518 -0.448 C10.512 -0.49 10.512 -0.49 14.051 0.131 C17.022 3.507 18.006 5.247 18.239 9.756 C19.051 13.131 19.051 13.131 21.106 14.463 C23.396 15.472 25.672 16.357 28.051 17.131 C28.051 18.451 28.051 19.771 28.051 21.131 C23.761 20.801 19.471 20.471 15.051 20.131 C15.051 19.801 15.051 19.471 15.051 19.131 C16.701 19.131 18.351 19.131 20.051 19.131 C19.886 18.471 19.886 18.471 19.051 15.131 C18.168 15.203 17.285 15.275 16.375 15.35 C9.635 15.871 3.017 16.224 -3.742 15.971 C-5.949 16.131 -5.949 16.131 -8.949 18.131 C-12.164 18.291 -12.164 18.291 -15.886 18.193 C-23.481 18.01 -23.481 18.01 -26.949 19.131 C-25.182 12.242 -21.825 5.901 -15.699 2.131 C-10.408 0.72 -5.441 0.365 0 0 Z " fill="#8D7747" transform="translate(387.94873046875,286.869140625)"/>
<path d="M0 0 C7.75 0.75 7.75 0.75 10 3 C9.34 3 8.68 3 8 3 C8 4.32 8 5.64 8 7 C6.68 7 5.36 7 4 7 C3.67 8.98 3.34 10.96 3 13 C4.98 13 6.96 13 9 13 C8.34 14.98 7.68 16.96 7 19 C3.7 19 0.4 19 -3 19 C-3.144 19.402 -3.144 19.402 -3.875 21.438 C-5 24 -5 24 -7 25 C-9.333 25.04 -11.667 25.043 -14 25 C-14 26.65 -14 28.3 -14 30 C-14.33 30 -14.66 30 -15 30 C-15 28.35 -15 26.7 -15 25 C-17.97 25 -20.94 25 -24 25 C-23.814 25.969 -23.629 26.939 -23.438 27.938 C-23.293 28.948 -23.149 29.959 -23 31 C-24 32 -24 32 -26.562 32.062 C-27.367 32.042 -28.171 32.021 -29 32 C-28.34 33.98 -27.68 35.96 -27 38 C-29.312 38.312 -29.312 38.312 -32 38 C-33.812 35.5 -33.812 35.5 -35 33 C-34.34 32.835 -34.34 32.835 -31 32 C-31.573 29.133 -31.861 28.139 -34 26 C-34.398 24.012 -34.738 22.011 -35 20 C-33.68 19.835 -33.68 19.835 -27 19 C-26.67 17.02 -26.34 15.04 -26 13 C-24.02 12.835 -24.02 12.835 -14 12 C-14 10.02 -14 8.04 -14 6 C-13.229 6.012 -12.458 6.023 -11.664 6.035 C-11.163 6.04 -11.163 6.04 -8.625 6.062 C-8.126 6.068 -8.126 6.068 -5.602 6.098 C-3 6 -3 6 -1 5 C-0.375 2.438 -0.375 2.438 0 0 Z " fill="#4B2C35" transform="translate(412,381)"/>
<path d="M0 0 C0.33 0 0.66 0 1 0 C1.165 1.32 1.165 1.32 2 8 C5.63 8 9.26 8 13 8 C13 8.33 13 8.66 13 9 C9.37 9 5.74 9 2 9 C2 10.98 2 12.96 2 15 C-3.244 16.748 -7.473 17.194 -13 17 C-12.67 18.98 -12.34 20.96 -12 23 C-15.334 25.191 -18.042 26.435 -22 27 C-21.67 28.65 -21.34 30.3 -21 32 C-22.65 32.99 -24.3 33.98 -26 35 C-25.67 35.763 -25.34 36.526 -25 37.312 C-23.858 40.382 -24 42.746 -24 46 C-31.502 39.04 -31.502 39.04 -33 34 C-33.413 33.319 -33.825 32.639 -34.25 31.938 C-34.498 31.298 -34.745 30.659 -35 30 C-34.667 29.333 -34.667 29.333 -33 26 C-33.875 23.75 -33.875 23.75 -35 22 C-32.094 20.743 -30.204 20 -27 20 C-27.33 17.69 -27.66 15.38 -28 13 C-24.04 12.34 -20.08 11.68 -16 11 C-16.33 8.69 -16.66 6.38 -17 4 C-15.105 3.662 -13.209 3.329 -11.312 3 C-10.257 2.814 -9.201 2.629 -8.113 2.438 C-5.351 2.049 -2.783 1.917 0 2 C0 1.34 0 0.68 0 0 Z " fill="#8D723A" transform="translate(378,354)"/>
<path d="M0 0 C3.3 0 6.6 0 10 0 C9.952 0.385 9.952 0.385 9.711 2.336 C9.6 3.339 9.489 4.342 9.375 5.375 C9.259 6.373 9.143 7.37 9.023 8.398 C9.016 9.257 9.008 10.115 9 11 C9.66 11.66 10.32 12.32 11 13 C9.742 13.021 8.484 13.041 7.188 13.062 C6.48 13.074 5.772 13.086 5.043 13.098 C3 13 3 13 0 12 C0 13.98 0 15.96 0 18 C-2.882 18.961 -4.699 19.106 -7.688 19.062 C-8.092 19.058 -8.092 19.058 -10.137 19.035 C-10.752 19.024 -11.366 19.012 -12 19 C-11.979 19.969 -11.959 20.939 -11.938 21.938 C-12 25 -12 25 -13 26 C-15.671 26.141 -18.324 26.042 -21 26 C-20.34 27.98 -19.68 29.96 -19 32 C-20 33 -20 33 -22.562 33.062 C-23.367 33.042 -24.171 33.021 -25 33 C-24.01 34.32 -23.02 35.64 -22 37 C-22.66 38.32 -23.32 39.64 -24 41 C-23.34 41.66 -22.68 42.32 -22 43 C-22.375 45.125 -22.375 45.125 -23 47 C-26.698 43.602 -28.954 40.579 -31 36 C-31.371 35.278 -31.743 34.556 -32.125 33.812 C-33 32 -33 32 -34 29 C-32.68 28.34 -31.36 27.68 -30 27 C-30.66 25.35 -31.32 23.7 -32 22 C-29.69 21.34 -27.38 20.68 -25 20 C-25.33 18.35 -25.66 16.7 -26 15 C-22.04 14.34 -18.08 13.68 -14 13 C-14.33 11.02 -14.66 9.04 -15 7 C-10.05 6.67 -5.1 6.34 0 6 C0 4.02 0 2.04 0 0 Z " fill="#856A3D" transform="translate(398,375)"/>
<path d="M0 0 C2.64 0.33 5.28 0.66 8 1 C8 2.98 8 4.96 8 7 C5.03 7 2.06 7 -1 7 C-1 8.98 -1 10.96 -1 13 C0.98 13.33 0.98 13.33 11 15 C11.33 13.35 11.66 11.7 12 10 C13.32 10 14.64 10 16 10 C16 11.98 16 13.96 16 16 C15.216 16.082 14.433 16.165 13.625 16.25 C11 17 11 17 9.836 19.047 C9.56 19.691 9.284 20.336 9 21 C7.563 21.027 6.125 21.046 4.688 21.062 C4.287 21.068 4.287 21.068 2.262 21.098 C0 21 0 21 -3 20 C-3 17.69 -3 15.38 -3 13 C-6.3 13.33 -9.6 13.66 -13 14 C-13 15.65 -13 17.3 -13 19 C-11.68 19.33 -10.36 19.66 -9 20 C-9 21.98 -9 23.96 -9 26 C-18.57 25.67 -28.14 25.34 -38 25 C-38 23.02 -38 21.04 -38 19 C-34.04 18.67 -30.08 18.34 -26 18 C-25.67 16.35 -25.34 14.7 -25 13 C-25.66 12.67 -26.32 12.34 -27 12 C-24.36 12 -21.72 12 -19 12 C-19 9.69 -19 7.38 -19 5 C-13.06 5.33 -7.12 5.66 -1 6 C-0.67 4.02 -0.34 2.04 0 0 Z " fill="#4A3337" transform="translate(436,343)"/>
<path d="M0 0 C2.75 -0.375 2.75 -0.375 6 0 C8.375 3 8.375 3 10 6 C8.68 6.33 7.36 6.66 6 7 C6.33 8.32 6.66 9.64 7 11 C7.825 11.165 7.825 11.165 12 12 C12 11.01 12 10.02 12 9 C12.99 9.33 13.98 9.66 15 10 C15.165 10.825 15.165 10.825 16 15 C15.01 15 14.02 15 13 15 C13 15.99 13 16.98 13 18 C10.36 18 7.72 18 5 18 C5 19.65 5 21.3 5 23 C0.71 22.67 -3.58 22.34 -8 22 C-8 23.98 -8 25.96 -8 28 C-9.98 27.67 -11.96 27.34 -14 27 C-14 25.02 -14 23.04 -14 21 C-16.31 20.67 -18.62 20.34 -21 20 C-21 18.35 -21 16.7 -21 15 C-21.66 14.67 -22.32 14.34 -23 14 C-20.36 13.67 -17.72 13.34 -15 13 C-15.33 11.02 -15.66 9.04 -16 7 C-14.35 7.33 -12.7 7.66 -11 8 C-11 6.35 -11 4.7 -11 3 C-7.37 3 -3.74 3 0 3 C0 2.01 0 1.02 0 0 Z " fill="#85615D" transform="translate(445,307)"/>
<path d="M0 0 C1.32 0 2.64 0 4 0 C5.971 4.927 6.18 8.78 6 14 C4.68 14 3.36 14 2 14 C2 15.32 2 16.64 2 18 C-0.97 17.67 -3.94 17.34 -7 17 C-7.33 18.98 -7.66 20.96 -8 23 C-12.62 22.34 -17.24 21.68 -22 21 C-22.33 22.98 -22.66 24.96 -23 27 C-25.97 26.67 -28.94 26.34 -32 26 C-32.33 21.71 -32.66 17.42 -33 13 C-29.04 13 -25.08 13 -21 13 C-21 11.02 -21 9.04 -21 7 C-19.396 6.973 -17.792 6.954 -16.188 6.938 C-15.294 6.926 -14.401 6.914 -13.48 6.902 C-11 7 -11 7 -8 8 C-8 6.35 -8 4.7 -8 3 C-5.36 3 -2.72 3 0 3 C0 2.01 0 1.02 0 0 Z " fill="#E4BE67" transform="translate(458,322)"/>
<path d="M0 0 C1.254 0.018 2.509 0.036 3.801 0.055 C4.277 0.066 4.277 0.066 6.688 0.125 C6.688 2.105 6.688 4.085 6.688 6.125 C5.7 6.258 4.713 6.391 3.695 6.527 C2.414 6.704 1.133 6.881 -0.188 7.062 C-0.826 7.15 -0.826 7.15 -4.055 7.59 C-7.312 8.125 -7.312 8.125 -9.312 9.125 C-9.938 12.188 -9.938 12.188 -10.312 15.125 C-9.792 14.972 -9.271 14.818 -8.734 14.66 C-5.68 13.985 -2.682 13.781 0.438 13.562 C1.023 13.521 1.023 13.521 3.984 13.309 C4.876 13.248 5.768 13.187 6.688 13.125 C7.017 11.145 7.347 9.165 7.688 7.125 C11.935 6.144 16.161 5.816 20.5 5.562 C21.193 5.519 21.886 5.476 22.6 5.432 C24.295 5.326 25.991 5.225 27.688 5.125 C27.688 7.435 27.688 9.745 27.688 12.125 C23.334 12.965 19.243 13.233 14.812 13.188 C13.66 13.178 12.508 13.169 11.32 13.16 C10.451 13.149 9.583 13.137 8.688 13.125 C8.688 15.435 8.688 17.745 8.688 20.125 C4.69 21.081 0.979 21.229 -3.125 21.188 C-4.286 21.178 -5.448 21.169 -6.645 21.16 C-7.525 21.149 -8.405 21.137 -9.312 21.125 C-9.478 20.3 -9.478 20.3 -10.312 16.125 C-10.988 16.269 -11.663 16.414 -12.359 16.562 C-13.251 16.748 -14.143 16.934 -15.062 17.125 C-15.944 17.311 -16.826 17.496 -17.734 17.688 C-20.312 18.125 -20.312 18.125 -24.312 18.125 C-24.973 16.145 -25.632 14.165 -26.312 12.125 C-24.543 11.62 -22.772 11.121 -21 10.625 C-20.014 10.347 -19.028 10.068 -18.012 9.781 C-15.312 9.125 -15.312 9.125 -12.312 9.125 C-12.312 6.815 -12.312 4.505 -12.312 2.125 C-8.094 0.076 -4.659 -0.087 0 0 Z " fill="#2A2932" transform="translate(369.3125,335.875)"/>
<path d="M0 0 C1.32 0.66 2.64 1.32 4 2 C3.091 3.9 2.173 5.795 1.25 7.688 C0.995 8.215 0.995 8.215 -0.297 10.887 C-1.96 13.926 -3.664 16.445 -6 19 C-8.625 19.625 -8.625 19.625 -11 20 C-11.66 20.99 -12.32 21.98 -13 23 C-15.438 22.625 -15.438 22.625 -18 22 C-18.33 21.34 -18.66 20.68 -19 20 C-17.562 17.375 -17.562 17.375 -16 15 C-18.64 15.66 -21.28 16.32 -24 17 C-23 21 -23 21 -20 23 C-20.66 24.32 -21.32 25.64 -22 27 C-26.95 26.67 -31.9 26.34 -37 26 C-36.67 24.02 -36.34 22.04 -36 20 C-34.68 20 -33.36 20 -32 20 C-32 18.02 -32 16.04 -32 14 C-30.02 14 -28.04 14 -26 14 C-25.34 12.02 -24.68 10.04 -24 8 C-23.241 8.058 -22.481 8.116 -21.699 8.176 C-18.729 8.311 -15.952 8.37 -13 8 C-10.812 5.5 -10.812 5.5 -10 3 C-4.25 4.875 -4.25 4.875 -2 6 C-1.34 4.02 -0.68 2.04 0 0 Z " fill="#624343" transform="translate(452,368)"/>
<path d="M0 0 C0.401 0.002 0.401 0.002 2.432 0.01 C2.848 0.014 2.848 0.014 4.957 0.035 C5.38 0.037 5.38 0.037 7.518 0.049 C9.602 0.061 11.686 0.079 13.77 0.098 C13.796 2.243 13.816 4.389 13.832 6.535 C13.844 7.73 13.855 8.925 13.867 10.156 C13.77 13.098 13.77 13.098 12.77 14.098 C11.356 14.254 9.936 14.348 8.516 14.414 C8.089 14.435 8.089 14.435 5.928 14.541 C5.03 14.58 4.132 14.62 3.207 14.66 C2.305 14.703 1.404 14.747 0.475 14.791 C-1.76 14.897 -3.995 14.999 -6.23 15.098 C-6.21 16.067 -6.189 17.036 -6.168 18.035 C-6.23 21.098 -6.23 21.098 -7.23 22.098 C-10.089 22.335 -12.929 22.52 -15.793 22.66 C-16.599 22.703 -17.406 22.747 -18.236 22.791 C-20.234 22.897 -22.232 22.998 -24.23 23.098 C-24.418 20.223 -24.418 20.223 -24.23 17.098 C-20.593 14.673 -18.373 14.711 -14.043 14.473 C-12.771 14.398 -11.498 14.323 -10.188 14.246 C-9.7 14.222 -9.7 14.222 -7.23 14.098 C-7.23 9.808 -7.23 5.518 -7.23 1.098 C-4.465 0.176 -2.848 -0.02 0 0 Z " fill="#2F2B33" transform="translate(383.23046875,327.90234375)"/>
<path d="M0 0 C0 1.65 0 3.3 0 5 C0.276 4.836 0.276 4.836 1.672 4.008 C4.388 2.832 6.306 2.798 9.25 2.875 C10.142 2.893 11.034 2.911 11.953 2.93 C12.291 2.941 12.291 2.941 14 3 C14 4.98 14 6.96 14 9 C9.71 9.99 5.42 10.98 1 12 C0.67 14.64 0.34 17.28 0 20 C-2.97 20.33 -5.94 20.66 -9 21 C-9.052 21.639 -9.052 21.639 -9.312 24.875 C-9.488 27.055 -9.488 27.055 -10 29 C-13 31 -13 31 -16 31 C-16 24.07 -16 17.14 -16 10 C-14.35 9.67 -12.7 9.34 -11 9 C-11 6.69 -11 4.38 -11 2 C-7.177 0.577 -4.087 -0.24 0 0 Z " fill="#46303F" transform="translate(342,322)"/>
<path d="M0 0 C0.037 0.771 0.075 1.542 0.113 2.336 C0.146 2.837 0.146 2.837 0.312 5.375 C0.371 6.373 0.429 7.37 0.488 8.398 C0.657 9.257 0.826 10.115 1 11 C1.495 11.33 1.495 11.33 4 13 C-0.62 13.33 -5.24 13.66 -10 14 C-10 15.98 -10 17.96 -10 20 C-16.6 20.33 -23.2 20.66 -30 21 C-30.293 11.82 -30.293 11.82 -30 9 C-26.354 6.57 -23.644 6.737 -19.438 6.812 C-19.095 6.813 -19.095 6.813 -17.361 6.814 C-12.281 6.859 -12.281 6.859 -10 8 C-10.062 7.051 -10.124 6.103 -10.188 5.125 C-10.157 4.609 -10.157 4.609 -10 2 C-6.356 -0.429 -4.288 -0.162 0 0 Z " fill="#9D8140" transform="translate(407,307)"/>
<path d="M0 0 C1.32 0 2.64 0 4 0 C3.221 14.781 3.221 14.781 1 21 C-0.32 20.67 -1.64 20.34 -3 20 C-3.66 21.32 -4.32 22.64 -5 24 C-6.32 23.67 -7.64 23.34 -9 23 C-9 21.02 -9 19.04 -9 17 C-9.66 17 -10.32 17 -11 17 C-11.33 17.825 -11.33 17.825 -13 22 C-16.96 21.67 -20.92 21.34 -25 21 C-26 18 -26 18 -25 14 C-22.03 14 -19.06 14 -16 14 C-16 12.02 -16 10.04 -16 8 C-15.01 8.165 -15.01 8.165 -10 9 C-9.67 7.02 -9.34 5.04 -9 3 C-6.03 3.33 -3.06 3.66 0 4 C0 2.68 0 1.36 0 0 Z " fill="#A7625F" transform="translate(460,336)"/>
<path d="M0 0 C3.96 0 7.92 0 12 0 C12.66 1.65 13.32 3.3 14 5 C16.31 5 18.62 5 21 5 C21 5.33 21 5.66 21 6 C19.35 6.33 17.7 6.66 16 7 C16.33 8.32 16.66 9.64 17 11 C13.912 12.765 12.767 13 9 13 C9.99 14.98 10.98 16.96 12 19 C10.35 19.33 8.7 19.66 7 20 C7.639 20.743 8.279 21.485 8.938 22.25 C11.566 25.755 12 27.696 12 32 C9.696 29.783 7.409 27.55 5.125 25.312 C4.474 24.687 3.823 24.061 3.152 23.416 C-2.889 17.468 -2.889 17.468 -4 13 C-4 12.01 -4 11.02 -4 10 C-4.631 7.988 -5.294 5.986 -6 4 C-4.02 3.34 -2.04 2.68 0 2 C0 1.34 0 0.68 0 0 Z " fill="#462D38" transform="translate(357,384)"/>
<path d="M0 0 C1.32 0.66 2.64 1.32 4 2 C3.393 6.86 1.272 10.741 -1 15 C-2.32 14.34 -3.64 13.68 -5 13 C-5.66 14.98 -6.32 16.96 -7 19 C-9.64 18.34 -12.28 17.68 -15 17 C-15.371 17.825 -15.743 18.65 -16.125 19.5 C-16.744 20.325 -17.363 21.15 -18 22 C-21.188 22.312 -21.188 22.312 -24 22 C-25.924 18.152 -23.796 13.024 -23 9 C-19.37 9 -15.74 9 -12 9 C-11.34 7.35 -10.68 5.7 -10 4 C-7.36 4 -4.72 4 -2 4 C-1.34 2.68 -0.68 1.36 0 0 Z " fill="#DEB450" transform="translate(457,355)"/>
<path d="M0 0 C3.3 0 6.6 0 10 0 C9.952 0.385 9.952 0.385 9.711 2.336 C9.656 2.837 9.656 2.837 9.375 5.375 C9.259 6.373 9.143 7.37 9.023 8.398 C9.016 9.257 9.008 10.115 9 11 C9.66 11.66 10.32 12.32 11 13 C9.742 13.021 8.484 13.041 7.188 13.062 C6.48 13.074 5.772 13.086 5.043 13.098 C3 13 3 13 0 12 C0 13.98 0 15.96 0 18 C-2.751 18.917 -4.359 19.109 -7.188 19.062 C-7.817 19.052 -7.817 19.052 -11 19 C-11.674 17.566 -12.339 16.127 -13 14.688 C-13.371 13.887 -13.743 13.086 -14.125 12.262 C-15 10 -15 10 -15 7 C-10.05 6.67 -5.1 6.34 0 6 C0 4.02 0 2.04 0 0 Z " fill="#947639" transform="translate(398,375)"/>
<path d="M0 0 C0.66 0 1.32 0 2 0 C1.426 3.829 -0.262 5.71 -2.875 8.5 C-3.279 8.936 -3.279 8.936 -5.324 11.145 C-5.766 11.616 -5.766 11.616 -8 14 C-9.424 15.542 -10.844 17.087 -12.262 18.634 C-13.208 19.665 -14.157 20.694 -15.107 21.722 C-17.659 24.488 -20.087 27.312 -22.438 30.25 C-22.86 30.704 -22.86 30.704 -25 33 C-26.32 33 -27.64 33 -29 33 C-28.387 28.831 -26.905 25.738 -25 22 C-23.929 19.712 -22.867 17.421 -21.812 15.125 C-21.283 13.973 -20.753 12.82 -20.207 11.633 C-19.809 10.764 -19.41 9.895 -19 9 C-17.877 9.052 -16.754 9.103 -15.598 9.156 C-14.41 9.105 -13.223 9.053 -12 9 C-10.97 7.352 -9.969 5.685 -9 4 C-7 3.958 -5 3.958 -3 4 C-1.25 2 -1.25 2 0 0 Z " fill="#8B5F54" transform="translate(434,397)"/>
<path d="M0 0 C0.33 0.99 0.66 1.98 1 3 C3.64 3 6.28 3 9 3 C9.33 7.29 9.66 11.58 10 16 C7.69 16 5.38 16 3 16 C3 17.98 3 19.96 3 22 C1.02 21.67 -0.96 21.34 -3 21 C-3 19.02 -3 17.04 -3 15 C-5.31 14.67 -7.62 14.34 -10 14 C-10 12.35 -10 10.7 -10 9 C-10.66 8.67 -11.32 8.34 -12 8 C-9.36 7.67 -6.72 7.34 -4 7 C-4.33 5.02 -4.66 3.04 -5 1 C-3.35 1.33 -1.7 1.66 0 2 C0 1.34 0 0.68 0 0 Z " fill="#965553" transform="translate(434,313)"/>
<path d="M0 0 C3.3 0 6.6 0 10 0 C9.34 0.66 8.68 1.32 8 2 C7.805 5.039 7.805 5.039 7.875 8.625 C7.884 9.219 7.884 9.219 7.93 12.227 C7.953 13.142 7.976 14.057 8 15 C5.03 14.67 2.06 14.34 -1 14 C-1.33 15.98 -1.66 17.96 -2 20 C-4.97 19.67 -7.94 19.34 -11 19 C-11.33 14.71 -11.66 10.42 -12 6 C-8.04 6 -4.08 6 0 6 C0 4.02 0 2.04 0 0 Z " fill="#E4BB5A" transform="translate(437,329)"/>
<path d="M0 0 C14.853 3.887 27.896 10.871 36.074 24.348 C36.38 24.893 36.685 25.438 37 26 C36.67 26.165 36.67 26.165 35 27 C35 27.99 35 28.98 35 30 C33.35 30 31.7 30 30 30 C29.34 28.02 28.68 26.04 28 24 C29.32 23.67 30.64 23.34 32 23 C30.875 21.062 30.875 21.062 29 19 C25.812 18.25 25.812 18.25 23 18 C23 18.99 23 19.98 23 21 C17.763 21.087 17.763 21.087 15 20 C13.069 17.221 12.086 14.187 11 11 C8.862 6.296 6.015 4.504 1.645 2.016 C1.102 1.68 0.559 1.345 0 1 C0 0.67 0 0.34 0 0 Z " fill="#DFAC67" transform="translate(422,289)"/>
<path d="M0 0 C0.33 0 0.66 0 1 0 C1 2.97 1 5.94 1 9 C1.66 9.33 2.32 9.66 3 10 C2.34 10 1.68 10 1 10 C1.33 12.31 1.66 14.62 2 17 C-0.64 17.66 -3.28 18.32 -6 19 C-5.959 20.114 -5.918 21.228 -5.875 22.375 C-6 26 -6 26 -8 28 C-8.697 29.317 -9.37 30.649 -10 32 C-12.454 26.327 -14.462 21.182 -15 15 C-14.361 14.835 -13.721 14.67 -13.062 14.5 C-11 13 -11 13 -10.547 11.121 C-10.328 9.084 -10.162 7.042 -10 5 C-9 4 -9 4 -6.934 3.902 C-6.522 3.908 -6.522 3.908 -4.438 3.938 C-3.611 3.947 -2.785 3.956 -1.934 3.965 C-1.296 3.976 -0.657 3.988 0 4 C0 2.68 0 1.36 0 0 Z " fill="#856F45" transform="translate(342,338)"/>
<path d="M0 0 C2.31 0.33 4.62 0.66 7 1 C6.01 1.33 5.02 1.66 4 2 C3.051 4.504 3.051 4.504 2.312 7.562 C2.061 8.574 1.81 9.586 1.551 10.629 C1.369 11.411 1.187 12.194 1 13 C0.175 12.835 0.175 12.835 -4 12 C-4.33 13.98 -4.66 15.96 -5 18 C-7.31 18 -9.62 18 -12 18 C-12 20.31 -12 22.62 -12 25 C-14.97 25 -17.94 25 -21 25 C-21.66 23.35 -22.32 21.7 -23 20 C-21.35 19.67 -19.7 19.34 -18 19 C-18.33 17.02 -18.66 15.04 -19 13 C-16.36 12.67 -13.72 12.34 -11 12 C-11 10.35 -11 8.7 -11 7 C-10.374 6.914 -9.747 6.827 -9.102 6.738 C-6.632 6.314 -4.356 5.857 -2 5 C-0.438 2.375 -0.438 2.375 0 0 Z " fill="#997A3D" transform="translate(409,399)"/>
<path d="M0 0 C5.28 0 10.56 0 16 0 C16 0.33 16 0.66 16 1 C13.36 1.33 10.72 1.66 8 2 C8 5.96 8 9.92 8 14 C8.99 14.33 9.98 14.66 11 15 C7.04 14.67 3.08 14.34 -1 14 C-1 16.31 -1 18.62 -1 21 C-3.64 21 -6.28 21 -9 21 C-10.354 18.292 -9.914 16.435 -9.625 13.438 C-9.535 12.446 -9.445 11.455 -9.352 10.434 C-9 8 -9 8 -8 7 C-5.329 6.859 -2.676 6.958 0 7 C0 4.69 0 2.38 0 0 Z " fill="#A7853F" transform="translate(418,334)"/>
<path d="M0 0 C0 1.65 0 3.3 0 5 C-3.212 6.906 -5.539 7.223 -9.25 7.125 C-10.142 7.107 -11.034 7.089 -11.953 7.07 C-12.291 7.059 -12.291 7.059 -14 7 C-13.67 8.98 -13.34 10.96 -13 13 C-15.645 14.322 -17.678 14.097 -20.625 14.062 C-21.628 14.053 -22.631 14.044 -23.664 14.035 C-24.435 14.024 -25.206 14.012 -26 14 C-26.66 12.68 -27.32 11.36 -28 10 C-28.759 10.058 -29.519 10.116 -30.301 10.176 C-33.271 10.311 -36.048 10.37 -39 10 C-41.188 7.5 -41.188 7.5 -42 5 C-37.88 3.708 -34.332 2.737 -30 3 C-29.34 4.32 -28.68 5.64 -28 7 C-24.04 7 -20.08 7 -16 7 C-15.67 5.02 -15.34 3.04 -15 1 C-12.875 0.832 -10.75 0.666 -8.625 0.5 C-7.442 0.407 -6.258 0.314 -5.039 0.219 C-3.362 0.098 -1.681 0 0 0 Z " fill="#292730" transform="translate(397,375)"/>
<path d="M0 0 C2.64 0.33 5.28 0.66 8 1 C8 2.98 8 4.96 8 7 C5.03 7 2.06 7 -1 7 C-1 8.98 -1 10.96 -1 13 C0.98 13.33 0.98 13.33 11 15 C11.33 13.35 11.66 11.7 12 10 C13.32 10 14.64 10 16 10 C16 11.98 16 13.96 16 16 C15.608 16.041 15.608 16.041 13.625 16.25 C11 17 11 17 9.836 19.047 C9.56 19.691 9.284 20.336 9 21 C7.563 21.027 6.125 21.046 4.688 21.062 C4.287 21.068 4.287 21.068 2.262 21.098 C0 21 0 21 -3 20 C-3 17.69 -3 15.38 -3 13 C-5.97 13 -8.94 13 -12 13 C-11.01 12.67 -10.02 12.34 -9 12 C-9 10.02 -9 8.04 -9 6 C-6.36 6 -3.72 6 -1 6 C-0.67 4.02 -0.34 2.04 0 0 Z " fill="#5B4C48" transform="translate(436,343)"/>
<path d="M0 0 C3.688 0.438 3.688 0.438 6.062 3 C7.688 6.438 7.688 6.438 7.875 10.062 C8.688 13.438 8.688 13.438 10.742 14.77 C13.032 15.779 15.308 16.664 17.688 17.438 C17.688 18.757 17.688 20.077 17.688 21.438 C13.397 21.108 9.108 20.777 4.688 20.438 C4.688 20.108 4.688 19.777 4.688 19.438 C6.337 19.438 7.988 19.438 9.688 19.438 C9.358 18.118 9.027 16.798 8.688 15.438 C6.707 15.603 6.707 15.603 -3.312 16.438 C-4.159 11.359 -4.49 6.589 -4.312 1.438 C-3.312 0.438 -3.312 0.438 0 0 Z " fill="#816B43" transform="translate(398.3125,286.5625)"/>
<path d="M0 0 C0.125 2.875 0.125 2.875 0 6 C-2 8 -2 8 -5.039 8.195 C-6.222 8.172 -7.406 8.149 -8.625 8.125 C-9.814 8.107 -11.002 8.089 -12.227 8.07 C-13.142 8.047 -14.057 8.024 -15 8 C-14.979 8.969 -14.959 9.939 -14.938 10.938 C-15 14 -15 14 -16 15 C-18.02 15.072 -20.042 15.084 -22.062 15.062 C-22.615 15.058 -22.615 15.058 -25.41 15.035 C-26.265 15.024 -27.119 15.012 -28 15 C-28.289 14.196 -28.577 13.391 -28.875 12.562 C-30 10 -30 10 -32 9 C-28.708 7.354 -25.155 7.986 -21.531 8.062 C-19 8 -19 8 -17 7 C-16.375 3.938 -16.375 3.938 -16 1 C-14.084 0.831 -12.167 0.665 -10.25 0.5 C-9.716 0.454 -9.716 0.454 -7.016 0.219 C-4.682 0.049 -2.34 0 0 0 Z " fill="#722B38" transform="translate(397,368)"/>
<path d="M0 0 C1.506 1.964 2.891 3.783 4 6 C7.062 6.625 7.062 6.625 10 7 C10 7.33 10 7.66 10 8 C8.35 8.33 6.7 8.66 5 9 C5.33 10.65 5.66 12.3 6 14 C5.175 14.495 5.175 14.495 1 17 C1.33 17.763 1.66 18.526 2 19.312 C3.142 22.382 3 24.746 3 28 C-4.502 21.04 -4.502 21.04 -6 16 C-6.413 15.319 -6.825 14.639 -7.25 13.938 C-7.498 13.298 -7.745 12.659 -8 12 C-7.333 10.667 -6.667 9.333 -6 8 C-6.875 5.75 -6.875 5.75 -8 4 C-5.094 2.743 -3.204 2 0 2 C0 1.34 0 0.68 0 0 Z " fill="#82693F" transform="translate(351,372)"/>
<path d="M0 0 C0.551 0.006 0.551 0.006 3.34 0.035 C3.892 0.04 3.892 0.04 6.688 0.062 C7.542 0.074 8.397 0.086 9.277 0.098 C9.607 1.418 9.937 2.738 10.277 4.098 C10.659 4.015 10.659 4.015 12.59 3.598 C17.499 2.932 22.332 3.018 27.277 3.098 C27.277 5.078 27.277 7.058 27.277 9.098 C26.492 9.158 25.707 9.219 24.898 9.281 C19.324 9.726 13.801 10.219 8.277 11.098 C7.947 9.448 7.617 7.798 7.277 6.098 C3.317 6.098 -0.643 6.098 -4.723 6.098 C-3.528 0.127 -3.528 0.127 0 0 Z " fill="#252935" transform="translate(348.72265625,312.90234375)"/>
<path d="M0 0 C1.32 0.66 2.64 1.32 4 2 C3.091 3.9 2.173 5.795 1.25 7.688 C0.74 8.743 0.229 9.799 -0.297 10.887 C-1.945 13.9 -3.775 16.393 -6 19 C-12.6 17.533 -12.6 17.533 -14.5 15 C-15 13 -15 13 -14 11 C-14.99 10.34 -15.98 9.68 -17 9 C-16.216 8.752 -15.433 8.505 -14.625 8.25 C-11.677 6.846 -11.098 5.993 -10 3 C-4.25 4.875 -4.25 4.875 -2 6 C-1.34 4.02 -0.68 2.04 0 0 Z " fill="#945A55" transform="translate(452,368)"/>
<path d="M0 0 C1.666 -0.043 3.334 -0.041 5 0 C6 1 6 1 6.098 3.941 C6.065 7.294 6.033 10.647 6 14 C-0.27 14 -6.54 14 -13 14 C-13 11.69 -13 9.38 -13 7 C-10.69 6.67 -10.69 6.67 1 5 C0.67 3.35 0.34 1.7 0 0 Z " fill="#8D4348" transform="translate(411,320)"/>
<path d="M0 0 C0.33 1.32 0.66 2.64 1 4 C-0.65 4.495 -0.65 4.495 -9 7 C-9.33 8.98 -9.66 10.96 -10 13 C-16.6 13 -23.2 13 -30 13 C-30 11.35 -30 9.7 -30 8 C-25.923 6.05 -22.683 5.784 -18.188 5.875 C-17.607 5.884 -17.607 5.884 -14.668 5.93 C-13.788 5.953 -12.907 5.976 -12 6 C-11.711 5.196 -11.423 4.391 -11.125 3.562 C-8.951 -1.389 -4.786 -0.077 0 0 Z " fill="#2E2D35" transform="translate(407,302)"/>
<path d="M0 0 C6.264 1.518 10.006 6.844 13.301 12.059 C15.605 16.358 16.596 20.15 17 25 C13.7 24.34 10.4 23.68 7 23 C6.818 22.143 6.636 21.286 6.449 20.402 C5.103 14.28 3.705 8.656 1 3 C0.67 2.01 0.34 1.02 0 0 Z " fill="#DEB75F" transform="translate(417,290)"/>
<path d="M0 0 C0 1.65 0 3.3 0 5 C0.552 4.673 1.103 4.345 1.672 4.008 C4.388 2.832 6.306 2.798 9.25 2.875 C10.142 2.893 11.034 2.911 11.953 2.93 C12.291 2.941 12.291 2.941 14 3 C14 4.98 14 6.96 14 9 C11.69 9.495 11.69 9.495 0 12 C0 10.02 0 8.04 0 6 C-3.3 6.33 -6.6 6.66 -10 7 C-10 5.02 -10 3.04 -10 1 C-6.594 0.222 -3.492 -0.1 0 0 Z " fill="#272A38" transform="translate(342,322)"/>
<path d="M0 0 C0.042 2.333 0.041 4.667 0 7 C-1 8 -1 8 -2.858 8.114 C-3.648 8.108 -4.439 8.103 -5.254 8.098 C-6.108 8.094 -6.962 8.091 -7.842 8.088 C-8.74 8.08 -9.637 8.071 -10.562 8.062 C-11.464 8.058 -12.366 8.053 -13.295 8.049 C-15.53 8.037 -17.765 8.021 -20 8 C-20 6.02 -20 4.04 -20 2 C-14.2 -0.9 -6.318 -0.1 0 0 Z " fill="#7D2F3C" transform="translate(397,334)"/>
<path d="M0 0 C3.63 0 7.26 0 11 0 C11 2.31 11 4.62 11 7 C11.99 7.33 12.98 7.66 14 8 C13.34 8 12.68 8 12 8 C11.67 12.29 11.34 16.58 11 21 C9.35 20.67 7.7 20.34 6 20 C6.33 18.845 6.33 18.845 8 13 C7.01 13 6.02 13 5 13 C5 11.02 5 9.04 5 7 C3.35 6.67 1.7 6.34 0 6 C0 4.02 0 2.04 0 0 Z " fill="#A9624A" transform="translate(422,356)"/>
<path d="M0 0 C0.536 0.062 0.536 0.062 3.25 0.375 C3.25 4.708 3.25 9.042 3.25 13.375 C-6.16 15.487 -6.16 15.487 -10.75 16.375 C-10.09 16.045 -9.43 15.715 -8.75 15.375 C-8.477 13.52 -8.477 13.52 -8.375 11.188 C-7.802 5.206 -6.602 0.66 0 0 Z " fill="#846C40" transform="translate(385.75,288.625)"/>
<path d="M0 0 C1.32 0.66 2.64 1.32 4 2 C3.393 6.86 1.272 10.741 -1 15 C-2.32 14.34 -3.64 13.68 -5 13 C-5.66 14.98 -6.32 16.96 -7 19 C-7.825 18.67 -7.825 18.67 -12 17 C-10.68 13.04 -9.36 9.08 -8 5 C-6.02 4.67 -4.04 4.34 -2 4 C-0.625 1.938 -0.625 1.938 0 0 Z " fill="#ECC363" transform="translate(457,355)"/>
<path d="M0 0 C0.99 0 1.98 0 3 0 C3.33 0.66 3.66 1.32 4 2 C6.31 2 8.62 2 11 2 C10.25 8.75 10.25 8.75 8 11 C3.69 12.268 -0.549 12.075 -5 12 C-5 9.36 -5 6.72 -5 4 C-3.35 3.67 -1.7 3.34 0 3 C0 2.01 0 1.02 0 0 Z " fill="#49464C" transform="translate(393,443)"/>
<path d="M0 0 C2.31 0.33 4.62 0.66 7 1 C5.808 5.769 4.205 9.859 1.902 14.203 C1 16 1 16 0 19 C0.99 19.33 1.98 19.66 3 20 C2.618 20.217 2.618 20.217 0.688 21.312 C-1.581 22.737 -3.22 24.033 -5 26 C-6.422 23.155 -5.573 21.609 -4.785 18.555 C-4.511 17.478 -4.237 16.402 -3.955 15.293 C-3.661 14.165 -3.366 13.037 -3.062 11.875 C-2.772 10.739 -2.481 9.604 -2.182 8.434 C-1.461 5.621 -0.733 2.81 0 0 Z " fill="#56363E" transform="translate(405,411)"/>
<path d="M0 0 C1.32 0.33 2.64 0.66 4 1 C5.327 4.981 5.069 8.85 5 13 C3.68 13 2.36 13 1 13 C1 14.32 1 15.64 1 17 C-0.65 16.67 -2.3 16.34 -4 16 C-4.872 13.005 -5.108 10.364 -5.062 7.25 C-5.053 6.451 -5.044 5.652 -5.035 4.828 C-5.024 4.225 -5.012 3.622 -5 3 C-3.35 3 -1.7 3 0 3 C0 2.01 0 1.02 0 0 Z " fill="#F1CF7E" transform="translate(459,323)"/>
<path d="M0 0 C5.94 0 11.88 0 18 0 C17.67 1.98 17.34 3.96 17 6 C13.538 7.067 10.36 7.102 6.75 7.062 C5.672 7.053 4.595 7.044 3.484 7.035 C2.665 7.024 1.845 7.012 1 7 C1 8.98 1 10.96 1 13 C0.34 12.67 -0.32 12.34 -1 12 C-0.67 8.04 -0.34 4.08 0 0 Z " fill="#3A3034" transform="translate(397,368)"/>
<path d="M0 0 C3.3 0 6.6 0 10 0 C9.34 0.66 8.68 1.32 8 2 C7.805 5.039 7.805 5.039 7.875 8.625 C7.884 9.219 7.884 9.219 7.93 12.227 C7.953 13.142 7.976 14.057 8 15 C5.03 14.67 2.06 14.34 -1 14 C-1.33 11.36 -1.66 8.72 -2 6 C-1.34 6 -0.68 6 0 6 C0 4.02 0 2.04 0 0 Z " fill="#D2AB4A" transform="translate(437,329)"/>
<path d="M0 0 C0.351 0.005 0.351 0.005 2.127 0.027 C3.856 0.051 5.584 0.087 7.312 0.125 C7.355 2.125 7.353 4.125 7.312 6.125 C5.193 8.244 0.693 7.543 -2.25 7.688 C-3.056 7.731 -3.863 7.774 -4.693 7.818 C-6.691 7.925 -8.689 8.025 -10.688 8.125 C-10.875 5.25 -10.875 5.25 -10.688 2.125 C-7.007 -0.329 -4.244 -0.103 0 0 Z " fill="#772B3A" transform="translate(369.6875,342.875)"/>
<path d="M0 0 C1.65 0 3.3 0 5 0 C4.67 1.98 4.34 3.96 4 6 C6.64 6.66 9.28 7.32 12 8 C11.34 9.65 10.68 11.3 10 13 C5.05 12.67 0.1 12.34 -5 12 C-4.67 10.02 -4.34 8.04 -4 6 C-2.68 6 -1.36 6 0 6 C0 4.02 0 2.04 0 0 Z " fill="#724546" transform="translate(420,382)"/>
<path d="M0 0 C0.33 0.66 0.66 1.32 1 2 C1.66 1.67 2.32 1.34 3 1 C4.707 0.93 6.417 0.916 8.125 0.938 C9.035 0.947 9.945 0.956 10.883 0.965 C11.581 0.976 12.28 0.988 13 1 C14.792 6.166 15.12 9.511 14 15 C12.02 15 10.04 15 8 15 C8 14.67 8 14.34 8 14 C9.65 14 11.3 14 13 14 C13 12.02 13 10.04 13 8 C11.416 8.142 9.833 8.289 8.25 8.438 C7.368 8.519 6.487 8.6 5.578 8.684 C3 9 3 9 -1 10 C-0.67 6.7 -0.34 3.4 0 0 Z " fill="#69343F" transform="translate(343,317)"/>
<path d="M0 0 C5.625 -0.25 5.625 -0.25 9 2 C10.243 5.954 10.081 9.885 10 14 C8.02 13.67 8.02 13.67 -2 12 C-1.01 11.67 -0.02 11.34 1 11 C0.835 10.484 0.67 9.969 0.5 9.438 C-0.15 6.266 -0.062 3.228 0 0 Z " fill="#D2AE57" transform="translate(407,307)"/>
<path d="M0 0 C0.548 0.324 1.096 0.647 1.66 0.98 C1.33 2.63 1 4.28 0.66 5.98 C-0.292 5.969 -1.245 5.957 -2.227 5.945 C-3.481 5.936 -4.735 5.927 -6.027 5.918 C-7.269 5.906 -8.51 5.895 -9.789 5.883 C-12.802 5.966 -15.423 6.272 -18.34 6.98 C-18.652 4.668 -18.652 4.668 -18.34 1.98 C-13.943 -2.417 -5.496 -2.395 0 0 Z " fill="#72333F" transform="translate(395.33984375,303.01953125)"/>
<path d="M0 0 C-0.33 4.29 -0.66 8.58 -1 13 C-3.97 13 -6.94 13 -10 13 C-10.66 11.35 -11.32 9.7 -12 8 C-10.35 7.67 -8.7 7.34 -7 7 C-7.33 5.02 -7.66 3.04 -8 1 C-5.237 0.403 -2.84 0 0 0 Z " fill="#826739" transform="translate(398,411)"/>
<path d="M0 0 C0.973 -0.003 1.946 -0.005 2.949 -0.008 C5.312 0.125 5.312 0.125 6.312 1.125 C6.312 2.775 6.312 4.425 6.312 6.125 C3.342 6.455 3.342 6.455 -11.688 8.125 C-11.688 3.125 -11.688 3.125 -9.688 1.125 C-6.47 0.003 -3.387 -0.009 0 0 Z " fill="#6D2F3F" transform="translate(369.6875,309.875)"/>
<path d="M0 0 C2.31 0 4.62 0 7 0 C6.67 4.62 6.34 9.24 6 14 C3.69 14 1.38 14 -1 14 C-2.354 11.292 -1.914 9.435 -1.625 6.438 C-1.535 5.446 -1.445 4.455 -1.352 3.434 C-1 1 -1 1 0 0 Z " fill="#CCA54C" transform="translate(410,341)"/>
<path d="M0 0 C5.61 0 11.22 0 17 0 C17 1.98 17 3.96 17 6 C11.39 6 5.78 6 0 6 C0 4.02 0 2.04 0 0 Z " fill="#8F333E" transform="translate(398,362)"/>
</svg>
